<?xml version="1.0" standalone="no"?>
<!DOCTYPE svg PUBLIC "-//W3C//DTD SVG 1.1//EN" "http://www.w3.org/Graphics/SVG/1.1/DTD/svg11.dtd" >
<svg xmlns="http://www.w3.org/2000/svg">
<metadata>
This is a custom SVG webfont generated by Font Squirrel.
</metadata>
<defs>
<font id="webfontp2unCWQ0" horiz-adv-x="600" >
<font-face units-per-em="1000" ascent="750" descent="-250" />
<missing-glyph horiz-adv-x="250" />
<glyph unicode=" "  horiz-adv-x="250" />
<glyph unicode="&#x09;" horiz-adv-x="250" />
<glyph unicode="&#xa0;" horiz-adv-x="250" />
<glyph unicode="!" horiz-adv-x="308" d="M28 102q0 19 7.5 38t22.5 34t36 24.5t48 9.5t48.5 -8.5t37.5 -23t24.5 -34t8.5 -40.5q0 -42 -32 -72.5t-87 -30.5q-24 0 -45 9t-36.5 23t-24 32.5t-8.5 38.5zM32 509v190h239v-190l-53 -252h-132z" />
<glyph unicode="&#x22;" horiz-adv-x="504" d="M227 701l-30 -299h-125l-37 299h192zM469 701l-36 -299h-125l-31 299h192z" />
<glyph unicode="#" horiz-adv-x="750" d="M70 569h154l47 183h132l-47 -183h134l47 183h132l-47 -183h113v-136h-147l-29 -114h121v-136h-156l-46 -184l-132 2l46 182h-134l-46 -184l-132 2l46 182h-111v136h146l29 114h-120v136zM293 319h134l29 114h-134z" />
<glyph unicode="$" horiz-adv-x="603" d="M365 776v-104q17 -8 31.5 -20t24.5 -29l8 56h146v-234h-154q0 53 -31.5 82t-79.5 29q-9 0 -19.5 -3t-19.5 -9.5t-14.5 -16t-5.5 -22.5q0 -25 25 -41t62 -30l82 -32q43 -16 80.5 -41t62.5 -62t25 -93q0 -55 -20.5 -92t-52.5 -59.5t-71.5 -32t-78.5 -10.5v-103h-141v131 q-27 15 -52 37l-11 -60h-146v241h157q0 -30 13.5 -48.5t32.5 -29t40 -14t35 -4.5q11 0 23.5 2t23.5 7t18.5 15t7.5 25q0 18 -24 31t-60 26l-78 29q-43 16 -79 42t-60 63.5t-24 93.5q0 50 17 86t43.5 59.5t59 36t63.5 14.5v84h141z" />
<glyph unicode="%" horiz-adv-x="931" d="M714 0q-45 0 -83 14.5t-65 41.5t-42.5 65t-15.5 86q0 46 17 83.5t45.5 64.5t64.5 41.5t75 14.5q98 0 152 -56t54 -151q0 -44 -13.5 -81.5t-39 -64.5t-63.5 -42.5t-86 -15.5zM221 306q-45 0 -83 14.5t-65 41.5t-42.5 65t-15.5 86q0 46 17 83.5t45.5 64.5t64.5 41.5 t75 14.5q98 0 152 -56t54 -151q0 -44 -13.5 -81.5t-39 -64.5t-63.5 -42.5t-86 -15.5zM189 0l432 699h114l-433 -699h-113zM714 92q23 0 37.5 30t14.5 82q0 51 -16 82t-39 31h-1q-19 0 -36 -28q-17 -29 -17 -82q0 -54 18.5 -84.5t38.5 -30.5zM221 398q23 0 37.5 30t14.5 82 q0 51 -16 82t-39 31h-1q-19 0 -35 -28q-18 -29 -18 -82q0 -54 18.5 -84.5t38.5 -30.5z" />
<glyph unicode="&#x26;" horiz-adv-x="771" d="M10 205q0 24 7 51t23.5 53.5t45 52t71.5 47.5q-30 20 -51.5 56t-21.5 76q0 31 15.5 61.5t44 54.5t67.5 39t87 15q58 0 99.5 -15.5t67.5 -40.5t38.5 -55t12.5 -59q0 -30 -10 -53t-26.5 -41t-37 -31t-40.5 -21l93 -93q18 34 30.5 68t21.5 65h214v-126h-98q-12 -35 -26 -64 t-31 -54l62 -61h58v-130h-149l-65 64q-40 -37 -103 -57t-134 -20q-62 0 -111.5 17t-83.5 46t-52 69t-18 86zM197 211q0 -18 7 -32t18.5 -24t26 -15t29.5 -5q24 0 58 9.5t60 32.5l-127 125h-4q-10 -6 -22 -16t-22 -22t-17 -25.5t-7 -27.5zM355 538q0 22 -13 41.5t-45 19.5 q-23 0 -36.5 -17.5t-13.5 -37.5q0 -16 6.5 -28t15.5 -20.5t19.5 -14.5t18.5 -9h1q2 0 9 4q8 5 16.5 14t15 21.5t6.5 26.5z" />
<glyph unicode="'" horiz-adv-x="273" d="M234 701l-36 -299h-125l-37 299h198z" />
<glyph unicode="(" horiz-adv-x="388" d="M363 709l-45 -57q-26 -34 -50 -82.5t-41.5 -112.5t-17.5 -145q0 -84 16 -149t39 -115.5t50 -87t49 -62.5l-103 -107q-41 37 -82.5 91t-75.5 121t-55.5 145t-21.5 164q0 88 25 168t61.5 145t77 114t71.5 76z" />
<glyph unicode=")" horiz-adv-x="388" d="M128 814q31 -27 71.5 -76t77 -114t61.5 -145t25 -168q0 -86 -21.5 -164t-55.5 -145t-76 -121t-82 -91l-103 107q22 26 49 62.5t50 87t39 115.5t16 149q0 81 -17.5 145t-41.5 112.5t-50 83.5l-45 56z" />
<glyph unicode="*" horiz-adv-x="413" d="M286 324l-79 111l-83 -114l-88 74l87 94l-118 41l41 98l114 -53l-13 124h123l-16 -127l113 56l41 -98l-121 -40l90 -96z" />
<glyph unicode="+" horiz-adv-x="547" d="M522 305h-183v-183h-130v183h-184v130h184v184h130v-184h183v-130z" />
<glyph unicode="," horiz-adv-x="272" d="M-6 -129q27 33 46.5 67t31.5 72.5t16 83.5q3 24 3 51q0 24 -2 51l182 -48v-12q0 -91 -41 -173q-44 -88 -121 -157z" />
<glyph unicode="-" horiz-adv-x="340" d="M25 305h290v-133h-290v133z" />
<glyph unicode="." horiz-adv-x="258" d="M15 104q0 19 7.5 39.5t21.5 37t35.5 27t48.5 10.5t48.5 -10.5t36.5 -27t22.5 -37t7.5 -39.5q0 -45 -29 -76.5t-86 -31.5q-25 0 -45.5 9.5t-35.5 24.5t-23.5 34.5t-8.5 39.5z" />
<glyph unicode="/" horiz-adv-x="524" d="M5 -78l372 830h142l-372 -832z" />
<glyph unicode="0" horiz-adv-x="599" d="M302 -12q-63 0 -115.5 22.5t-90.5 68t-59.5 114t-21.5 160.5q0 79 20.5 145.5t58 113.5t89.5 73.5t114 26.5q73 0 127.5 -26t89.5 -74t52.5 -115.5t17.5 -150.5t-18.5 -149.5t-54.5 -113t-88.5 -71t-120.5 -24.5zM302 143q17 0 32 14.5t26 41t17 64t6 83.5 q0 45 -6.5 82.5t-18.5 64.5t-28 42.5t-34 15.5q-14 0 -28.5 -13.5t-26.5 -39.5t-20 -62.5t-8 -82.5q0 -48 8.5 -87t21 -66.5t28.5 -42t31 -14.5z" />
<glyph unicode="1" horiz-adv-x="496" d="M25 568l41 20q20 10 40.5 23.5t43.5 34t50 53.5h178v-566h93v-133h-400v133h100v371l-100 -47z" />
<glyph unicode="2" horiz-adv-x="590" d="M33 586q53 61 119 92.5t141 31.5q50 0 93.5 -15t75.5 -43.5t50.5 -69t18.5 -91.5q0 -43 -10 -74t-30 -55.5t-50 -46.5t-70 -48q-18 -12 -40.5 -28.5t-44 -35t-39 -37t-26.5 -33.5h176v80h168v-213h-540v145q21 34 37 57.5t32.5 42t34.5 35t42 35.5q27 24 58 44t57.5 39.5 t44 40t17.5 43.5q0 38 -24.5 52t-59.5 14q-20 0 -37.5 -7.5t-33 -18.5t-28.5 -24l-24 -26z" />
<glyph unicode="3" horiz-adv-x="540" d="M248 -13q-36 0 -71 9.5t-66.5 25t-56 36t-39.5 42.5l102 106q28 -28 58.5 -46.5t73.5 -18.5q42 0 66 19.5t24 57.5q0 41 -22.5 57t-60.5 16h-75v119h73q36 0 60.5 17.5t24.5 51.5q0 20 -8 35t-20.5 24.5t-28 14.5t-31.5 5q-29 0 -60 -16t-57 -44l-97 117q13 15 35.5 31.5 t51 30.5t61 23.5t66.5 9.5q61 0 108.5 -15t80 -43t49.5 -67t17 -87q0 -26 -8 -46t-19.5 -35.5t-24 -27t-22.5 -18.5q12 -9 28 -23t30.5 -34t24.5 -46.5t10 -60.5q0 -56 -24.5 -97t-63.5 -68.5t-88.5 -41t-100.5 -13.5z" />
<glyph unicode="4" horiz-adv-x="584" d="M10 340l288 359h207v-394h53v-108h-53v-65h54v-132h-324v132h63v65h-288v143zM298 305v185l-148 -185h148z" />
<glyph unicode="5" horiz-adv-x="577" d="M263 -13q-38 0 -75.5 10t-71 27t-60 39t-41.5 45l109 113q29 -30 62.5 -52t77.5 -22q51 0 80.5 28t29.5 72q0 20 -8 37.5t-21.5 31t-32.5 21t-40 7.5q-35 0 -56.5 -14.5t-37.5 -31.5l-128 57l61 344h396v-149h-269l-17 -97q15 10 43 17t65 7q44 0 86 -15t74.5 -45 t52.5 -74.5t20 -102.5q0 -63 -26.5 -110.5t-69 -79t-96 -47.5t-107.5 -16z" />
<glyph unicode="6" horiz-adv-x="581" d="M478 501q-26 15 -63 33t-83 18q-56 -2 -89.5 -41t-41.5 -95q20 20 55.5 34.5t75.5 16.5h11q42 0 79 -13q43 -16 75 -45.5t50.5 -71.5t18.5 -93q0 -50 -17.5 -95t-51 -79.5t-81.5 -55.5t-109 -23h-11q-56 0 -103 19q-52 20 -90.5 60.5t-61.5 99.5t-25 134v15q0 27 2 61 q4 42 14.5 86.5t30.5 87.5t53 77t80.5 55.5t113.5 23.5h8q22 0 49 -4q32 -6 64 -16t62.5 -25t52.5 -34zM306 323q-18 -1 -34 -7t-29.5 -14.5t-23.5 -18.5t-16 -17q0 -19 5.5 -39.5t17 -38t29 -29t41.5 -11.5q19 0 36 6.5t29 18.5t19 27.5t7 33.5q0 15 -4.5 30.5t-14 29 t-25 21.5t-37.5 8z" />
<glyph unicode="7" horiz-adv-x="566" d="M15 699h541v-133l-269 -566h-216l268 566h-164v-65h-160v198z" />
<glyph unicode="8" horiz-adv-x="559" d="M15 205q0 24 7.5 50t21.5 50t34 44t45 32q-38 23 -56.5 60t-18.5 73q0 42 16 78t46.5 62.5t75 41.5t100.5 15q58 0 102.5 -15t75 -41.5t46 -62.5t15.5 -78q0 -50 -25.5 -85t-58.5 -51q51 -25 77 -73.5t26 -99.5q0 -46 -18.5 -86t-53 -69t-83.5 -46t-109 -17 q-62 0 -111.5 17t-83.5 46t-52 69t-18 86zM188 211q0 -18 7.5 -33t20 -26t29.5 -17t36 -6q37 0 64 20t28 62q0 26 -13.5 43t-33 27t-41.5 14t-39 5q-23 -13 -40.5 -37t-17.5 -52zM359 522q0 27 -22.5 45t-52.5 18q-29 0 -50.5 -19t-21.5 -44q0 -21 11 -33.5t26.5 -19.5 t32.5 -10t29 -3q19 9 33.5 26t14.5 40z" />
<glyph unicode="9" horiz-adv-x="587" d="M103 200q26 -15 63 -33t83 -18q56 2 89.5 36t32.5 100q-20 -20 -51 -34.5t-71 -16.5h-11q-42 0 -80 14q-42 15 -74 44.5t-50.5 71.5t-18.5 93q0 50 17.5 95t51 79.5t81.5 55.5t109 23h11q55 0 103 -18q54 -21 93.5 -61.5t63.5 -99.5t26 -134v-17q0 -31 -3 -66 q-3 -44 -14.5 -88t-32.5 -86t-54.5 -74t-81.5 -52.5t-114 -22.5h-8q-22 0 -49 5q-32 5 -64 15t-62.5 25t-52.5 34zM275 378q18 1 32.5 7t26 14.5t20.5 18t15 17.5q0 19 -4 39.5t-14 38t-26 29t-40 11.5q-19 0 -36 -6.5t-29 -18.5t-19 -27.5t-7 -33.5q0 -15 4.5 -30.5t14 -29 t24.5 -21.5t38 -8z" />
<glyph unicode=":" horiz-adv-x="254" d="M15 98q0 19 7 38.5t21.5 36t35 27t47.5 10.5t48 -10.5t35.5 -27t22 -36t7.5 -38.5q0 -22 -8 -41.5t-23 -33.5t-36 -22.5t-46 -8.5q-24 0 -44.5 9t-35.5 24t-23 34t-8 39zM15 402q0 19 7 38.5t21.5 36t35 27t47.5 10.5t48 -10.5t35.5 -27t22 -36t7.5 -38.5 q0 -45 -29.5 -75.5t-83.5 -30.5q-23 0 -43.5 9t-35.5 24t-23.5 34t-8.5 39z" />
<glyph unicode=";" horiz-adv-x="302" d="M59 385q0 19 7.5 39.5t21.5 37t35.5 27t48.5 10.5t48.5 -10.5t36.5 -27t22.5 -37t7.5 -39.5q0 -45 -30.5 -76.5t-84.5 -31.5q-24 0 -44.5 9.5t-35.5 24.5t-24 34.5t-9 39.5zM5 -129q27 33 46.5 67t31.5 72.5t17 83.5q2 24 2 51q0 24 -2 51l182 -48v-12q0 -91 -41 -173 q-44 -88 -121 -157z" />
<glyph unicode="&#x3c;" horiz-adv-x="549" d="M35 464l430 177l49 -122l-306 -117l306 -118l-49 -122l-430 177v125z" />
<glyph unicode="=" horiz-adv-x="462" d="M25 305h412v-133h-412v133zM25 526h412v-133h-412v133z" />
<glyph unicode="&#x3e;" horiz-adv-x="549" d="M514 340l-430 -177l-49 122l306 117l-306 118l49 122l430 -177v-125z" />
<glyph unicode="?" horiz-adv-x="520" d="M2 586q53 61 119 95t141 34q50 0 93.5 -13t75.5 -39t50.5 -64t18.5 -89q0 -33 -12 -57.5t-29.5 -44.5t-38.5 -36l-38 -28q-17 -14 -29 -27.5t-12 -28.5v-55h-185l-1 80q0 23 12 43t29.5 37.5t37.5 32.5l38 30q18 15 30 28.5t12 27.5t-6.5 23t-17 14.5t-24 7.5t-26.5 2 q-16 0 -33.5 -7t-35 -19t-33 -26.5t-28.5 -29.5zM129 102q0 -20 8.5 -38.5t24 -32.5t36.5 -23t45 -9q55 0 87 30.5t32 72.5q0 21 -8.5 40.5t-24.5 34t-37.5 23t-48.5 8.5t-48 -9.5t-36 -24.5t-22.5 -34t-7.5 -38z" />
<glyph unicode="@" horiz-adv-x="779" d="M389 451q31 0 55.5 -15t42.5 -37l6 40l99 -13l-40 -285q1 0 1 -1q14 -8 21.5 -10t15.5 -2q30 0 49.5 15.5t31 38t16 48t4.5 45.5q0 57 -21.5 106t-62 86t-98 58t-130.5 21q-76 0 -130.5 -31.5t-90 -79t-52.5 -103.5t-17 -105q0 -62 24 -116t65.5 -95t98 -64.5 t121.5 -23.5q57 0 100 11t72 25q34 16 60 37l48 -69q-31 -25 -73 -44q-36 -17 -88 -30.5t-119 -13.5q-77 0 -148 27.5t-125.5 77.5t-87 121t-32.5 157q0 42 9.5 88t29.5 91t50.5 85.5t72 71.5t94.5 49.5t118 18.5q92 0 165.5 -28t124.5 -76t78 -113t27 -139q0 -32 -8 -72.5 t-29 -76t-56.5 -59.5t-90.5 -24q-41 5 -60 13.5t-30 19.5q-39 -29 -70 -38.5t-62 -9.5q-33 0 -65.5 14.5t-58 41.5t-41.5 64.5t-16 83.5q0 34 13 73t38.5 71t63 53.5t87.5 21.5zM471 282l-12 21q-7 12 -17 22.5t-23.5 18t-29.5 7.5q-23 0 -40 -11.5t-28.5 -29t-17.5 -38.5 t-6 -40q0 -24 6 -43t16 -32.5t23 -21t26 -7.5q20 0 40.5 5t43.5 19z" />
<glyph unicode="A" horiz-adv-x="823" d="M808 0h-401v131h95l-21 68h-205l-21 -68h78v-131h-318v131h68l135 439h-41v129h384l177 -568h70v-131zM313 319h131l-66 216z" />
<glyph unicode="B" horiz-adv-x="687" d="M25 0v130h58v440h-58v129h373q125 0 185 -44.5t60 -126.5q0 -32 -5 -55.5t-16 -42t-30 -32.5t-47 -25q27 -8 51 -21.5t42 -34.5t28.5 -49.5t10.5 -64.5q0 -106 -63.5 -154.5t-208.5 -48.5h-380zM370 130q32 0 56.5 22.5t24.5 63.5q0 38 -21 63t-63 25h-77v-174h80z M290 567v-150h61q40 0 54 20.5t14 56.5q0 35 -18.5 54t-47.5 19h-63z" />
<glyph unicode="C" horiz-adv-x="686" d="M671 125q-26 -28 -58 -53.5t-70 -45t-82 -31t-93 -11.5q-80 0 -145 24.5t-111 71t-71.5 113t-25.5 150.5q0 86 29 154.5t74 116t98.5 72.5t102.5 25q37 0 64.5 -9t46.5 -20.5t29.5 -23t13.5 -15.5l23 56h157v-284h-179q-1 24 -8 47t-19.5 40.5t-32 28t-46.5 10.5 t-49 -15.5t-37.5 -42.5t-24 -63t-8.5 -77q0 -37 9.5 -71t28 -60t45.5 -41.5t63 -15.5q31 0 59 14t49 31.5t34.5 33t16.5 19.5z" />
<glyph unicode="D" horiz-adv-x="720" d="M25 0v133h62v434h-62v132h305q91 0 161.5 -26.5t119 -72t74 -107.5t25.5 -134q0 -172 -99 -265.5t-285 -93.5h-301zM480 359q0 40 -8.5 77.5t-26.5 66.5t-46.5 46.5t-68.5 17.5h-38v-434h38q40 1 68.5 18.5t46.5 48t26.5 71.5t8.5 88z" />
<glyph unicode="E" horiz-adv-x="653" d="M25 699h603v-221h-173v89h-160v-138h190v-133h-190v-163h160v93h173v-226h-603v133h63v434h-63v132z" />
<glyph unicode="F" horiz-adv-x="638" d="M25 699h598v-221h-177v89h-151v-174h190v-133h-190v-127h102v-133h-372v133h62v434h-62v132z" />
<glyph unicode="G" horiz-adv-x="776" d="M490 63q-17 -28 -60 -50t-101 -22q-66 0 -123 24.5t-99.5 70.5t-67 111t-24.5 146q0 82 26 149.5t69 116t98 75.5t114 27q54 0 89 -11t56.5 -25t32.5 -28t17 -20l21 72h149v-295h-179q-1 30 -10.5 54t-25.5 40t-36 24.5t-42 8.5q-30 0 -55.5 -15.5t-43.5 -41t-28 -60 t-10 -71.5q0 -38 9 -71.5t26.5 -58.5t43 -39.5t58.5 -14.5q43 0 64 14.5t32 34.5v42h-61v107h332v-107h-40v-250h-200z" />
<glyph unicode="H" horiz-adv-x="768" d="M25 699h324v-132h-62v-151h190v151h-59v132h325v-132h-58v-435h58v-132h-325v132h59v151h-190v-151h62v-132h-324v132h55v435h-55v132z" />
<glyph unicode="I" horiz-adv-x="382" d="M25 699h332v-132h-62v-434h62v-133h-332v133h63v434h-63v132z" />
<glyph unicode="J" horiz-adv-x="463" d="M20 -61q19 -9 45 -9q37 0 60 32t23 112v494h-86v131h376v-131h-83v-494q0 -66 -15 -118t-48.5 -87.5t-87.5 -54t-131 -18.5q-14 0 -27.5 3t-24.5 8z" />
<glyph unicode="K" horiz-adv-x="815" d="M340 570h-54v-163l186 163h-72v129h333v-129h-58l-145 -125l202 -315h58v-130h-390v130h68l-108 170l-74 -63v-107h54v-130h-315v130h54v440h-54v129h315v-129z" />
<glyph unicode="L" horiz-adv-x="610" d="M25 699h316v-132h-53v-434h129v127h168v-260h-560v133h55v434h-55v132z" />
<glyph unicode="M" horiz-adv-x="1008" d="M719 523q-3 -17 -7 -37l-8 -38l-8 -34q-3 -16 -6 -25l-105 -389h-209l-56 200l-56 199q-2 6 -5 19.5t-6 30.5t-6 36t-4 38h-4v-394h57v-129h-271v129h54v441h-53v129h379l101 -374l96 374h381v-129h-55v-440h55v-130h-316v130h57l-1 334v59h-4z" />
<glyph unicode="N" horiz-adv-x="816" d="M791 570h-66v-570h-215l-255 381v-252h77v-129h-307v129h59v441h-58v129h287l246 -367l-1 238h-68v129h301v-129z" />
<glyph unicode="O" horiz-adv-x="740" d="M373 -18q-78 0 -144 23t-113.5 69t-74 115.5t-26.5 163.5q0 81 25.5 148t72 115.5t111 75t142.5 26.5q92 0 159.5 -26.5t112 -75t66 -117.5t21.5 -153q0 -85 -23 -152.5t-68 -114.5t-110.5 -72t-150.5 -25zM373 139q24 0 42.5 15t32 42t20.5 65t7 85q0 45 -6.5 85 t-20 69.5t-34 46.5t-49.5 17q-23 0 -42 -15.5t-32.5 -43.5t-21 -67t-7.5 -85q0 -49 8.5 -88.5t23 -67.5t35 -43t44.5 -15z" />
<glyph unicode="P" horiz-adv-x="640" d="M25 699h324q87 0 141 -17.5t84 -47t40.5 -68t10.5 -81.5q0 -50 -21 -87t-57 -61.5t-83.5 -37t-101.5 -12.5h-76v-155h61v-132h-322v132h56v436h-56v131zM286 569v-174h45q44 0 71 21.5t27 61.5q0 45 -24.5 68t-68.5 23h-50z" />
<glyph unicode="Q" horiz-adv-x="755" d="M357 0q-76 0 -139 22t-108 66.5t-70 110.5t-25 155q0 76 24 140t68.5 110.5t106.5 72t137 25.5q88 0 152.5 -25.5t106.5 -72t62.5 -112t20.5 -145.5q0 -159 -83 -250q6 -23 15.5 -44t28.5 -21q13 0 16.5 16t3.5 29v29h66v-51q0 -33 -9.5 -62.5t-28 -51t-47 -34 t-65.5 -12.5q-31 0 -56 9t-44 24.5t-33 35.5t-22 42q-36 -6 -78 -6zM357 347q32 0 60 -11t52 -28q1 9 1.5 18.5t0.5 20.5q0 43 -8.5 81t-24.5 66.5t-38 45t-50 16.5q-23 0 -43.5 -15t-36.5 -42t-25.5 -64t-9.5 -81q0 -32 4 -55q17 18 45 33t73 15zM357 150q28 0 53 22 q-5 38 -16 61t-37 23q-25 0 -40.5 -21.5t-26.5 -51.5q30 -33 67 -33z" />
<glyph unicode="R" horiz-adv-x="737" d="M25 699h325q87 0 141 -16t84.5 -44t41 -65.5t10.5 -80.5q0 -29 -11 -54t-30.5 -43.5t-46 -31t-57.5 -16.5q26 -4 49.5 -16.5t41.5 -31.5t29 -43t11 -51q0 -32 5 -50t19 -18q23 0 23 32v33h67v-55q0 -31 -7 -60t-24 -51t-45 -35.5t-70 -13.5q-99 0 -146.5 49t-47.5 137 q0 34 -3 56t-13.5 34.5t-30.5 17.5t-53 5v-155h61v-132h-323v132h56v436h-56v131zM287 569v-170h45q44 0 70 20.5t26 60.5q0 45 -23.5 67t-67.5 22h-50z" />
<glyph unicode="S" horiz-adv-x="710" d="M25 0v252h186q0 -32 14 -51t33.5 -29.5t41 -14.5t37.5 -5q13 0 28 2t27.5 7.5t21 15t8.5 25.5q0 19 -28.5 31.5t-71 24.5t-92.5 27.5t-92.5 42.5t-71 68.5t-28.5 105.5q0 55 23.5 96t59 67t77 39t78.5 13q31 0 62 -5.5t59 -17.5t50.5 -31.5t37.5 -47.5l10 84h172v-251 h-181q0 28 -10 49.5t-27.5 36.5t-41 22.5t-49.5 7.5q-11 0 -23 -3.5t-22.5 -10t-17 -16.5t-6.5 -23q0 -26 29.5 -43t73.5 -32l95 -32q51 -18 95 -44t73.5 -65t29.5 -98t-24.5 -99t-63 -65.5t-85.5 -36.5t-92 -11q-38 0 -70 8t-58 21t-46.5 29.5t-34.5 33.5l-11 -77h-175z " />
<glyph unicode="T" horiz-adv-x="701" d="M686 699v-260h-147v128h-84v-434h83v-133h-372v133h82v434h-86v-128h-147v260h671z" />
<glyph unicode="U" horiz-adv-x="737" d="M15 699h318v-129h-54v-216q0 -60 6.5 -98t19.5 -59.5t31.5 -29.5t42.5 -8q23 0 41.5 6.5t32 27t20.5 59t7 103.5v212h-54v132h296v-129h-54v-243q0 -178 -73 -261t-214 -83q-152 5 -231 86.5t-79 252.5v247h-56v130z" />
<glyph unicode="V" horiz-adv-x="773" d="M425 224q2 21 11.5 55t24.5 72l91 218h-52l-1 130h284v-130h-49l-240 -569h-184l-265 569h-55v130h369l-1 -130h-54l85 -224q12 -37 20.5 -68.5t10.5 -52.5h5z" />
<glyph unicode="W" horiz-adv-x="1015" d="M325 226q1 10 6 37l12 62l15 74l16 75l50 225h208l63 -276q5 -24 10 -51t9 -53l6 -50q3 -24 5 -43h5q1 17 5 43l9 53l8 54l8 41l34 152h-55v130h286v-130h-55l-149 -569h-237l-60 238l-7 30q-4 16 -7 33l-6 33q-3 16 -5 28h-4q-2 -11 -4.5 -27.5t-6.5 -34.5l-6 -33 l-7 -27l-61 -240h-232l-132 569h-56v130h330v-130h-58l26 -146q4 -18 9 -47t9.5 -58.5t8 -55t5.5 -36.5h5z" />
<glyph unicode="X" horiz-adv-x="835" d="M357 0h-332v129h87l147 191l-181 249h-52v130h396v-130h-58l98 -133l102 133h-88v130h332v-130h-85l-151 -193l180 -246h58v-130h-399v130h57l-76 102l-21 28l-103 -131h89v-129z" />
<glyph unicode="Y" horiz-adv-x="669" d="M373 384q1 7 5.5 18l9.5 23l12 24q6 12 10 21l55 101h-55v128h269v-128h-54l-185 -325v-116h56v-130h-320v130h57v118l-194 323h-49v128h342v-128h-52l58 -106q2 -7 6 -18l10 -23q5 -12 9 -23t6 -17h4z" />
<glyph unicode="Z" horiz-adv-x="714" d="M31 436v263h656l2 -133l-366 -434h185l1 128h177v-260h-661v130l364 437l-189 -1l1 -130h-170z" />
<glyph unicode="[" horiz-adv-x="720" d="M29 700h324q87 0 141 -19.5t84 -51.5t40.5 -73t10.5 -84q0 -56 -30 -97.5t-78 -67.5l112 -177h58v-130h-192l-166 268h-43v-136h61v-132h-322v132h56v436h-56v132zM290 569v-174h45q44 0 71 21.5t27 61.5q0 45 -24.5 68t-68.5 23h-50z" />
<glyph unicode="\" horiz-adv-x="524" d="M377 -80l-372 832h142l372 -830z" />
<glyph unicode="]" horiz-adv-x="647" d="M30 0v130h41v489h-41v131h231v-452l116 69h-72v133h280v-133h-77l-63 -37l139 -199h41v-131h-162l-168 239l-35 -24v-84h71v-131h-301z" />
<glyph unicode="^" horiz-adv-x="597" d="M372 700l215 -397h-178l-109 224l-112 -224h-178l217 397h145z" />
<glyph unicode="_" horiz-adv-x="699" d="M25 82h649v-83h-649v83z" />
<glyph unicode="a" d="M36 458q15 9 38 21t51.5 23.5t61 19t67.5 7.5q45 0 93 -9.5t87.5 -33t65 -63.5t25.5 -100v-195h60v-128h-214l-24 45q-14 -19 -31.5 -31.5t-36 -19.5t-36.5 -10t-31 -3q-36 0 -71 10t-63 30t-45.5 51.5t-17.5 75.5q0 42 16.5 76t45 58t66.5 37t80 13q22 0 39.5 -4.5 t30 -10.5t20 -12t9.5 -8v35q0 34 -27 45t-68 11q-45 0 -82.5 -15t-66.5 -31zM258 111q23 0 40 11t24 22v38q-1 2 -4.5 6.5t-10.5 9.5t-17.5 9t-26.5 4q-30 0 -44 -15t-14 -38q0 -21 15 -34t38 -13z" />
<glyph unicode="b" horiz-adv-x="656" d="M31 0v130h42v489h-42v131h242v-289q8 10 22.5 18.5t32.5 15t38 10t38 3.5q57 0 100.5 -22t72.5 -58.5t43 -83.5q14 -45 14 -92v-6q-1 -58 -17.5 -105.5t-46.5 -81t-72 -52t-95 -18.5q-29 0 -49 3.5t-35 10t-26.5 14.5t-21.5 17l-15 -34h-225zM414 244q0 22 -5 44.5 t-14.5 39.5t-23 28t-29.5 11q-15 0 -28.5 -9t-23.5 -25.5t-16 -40.5q-4 -17 -4 -37q0 -8 1 -16q0 -26 6 -47.5t16 -38t23 -25.5t27 -9q32 0 51.5 34t19.5 91z" />
<glyph unicode="c" horiz-adv-x="531" d="M360 274q-1 18 -4.5 36.5t-10.5 34t-19 25t-29 9.5q-22 0 -38.5 -11t-27.5 -29t-16.5 -41t-5.5 -47q0 -49 27.5 -83t75.5 -35h5q37 0 63 15q28 15 53 42l88 -102q-18 -19 -43 -37.5t-56.5 -32.5t-68.5 -23t-77 -9q-55 0 -105 16.5t-87.5 50t-60 83.5t-22.5 117 q0 66 20.5 114.5t54.5 80t78.5 46.5t92.5 15q25 0 45.5 -6t36 -15t26.5 -19t17 -17l17 48h118v-226h-147z" />
<glyph unicode="d" horiz-adv-x="634" d="M368 620h-46v130h249v-620h48v-130h-234l-17 37q-5 -5 -15.5 -12.5t-26.5 -15t-37 -13t-47 -5.5q-53 0 -96 21.5t-73 58t-46.5 84.5t-16.5 100q0 58 19 105.5t51 80.5t74 51t88 18q53 0 82.5 -14.5t43.5 -23.5v148zM225 255q0 -23 5 -45t14.5 -39t22.5 -28t30 -11 q15 0 28.5 9t23.5 25.5t15 39.5q4 20 4 44v10q0 25 -6 47t-16 38.5t-23 25.5t-27 9q-32 0 -51.5 -34t-19.5 -91z" />
<glyph unicode="e" horiz-adv-x="542" d="M527 69q-56 -48 -118 -67.5t-140 -19.5q-47 0 -94 15.5t-84.5 48t-61.5 84t-24 123.5q0 61 21 109.5t57 82.5t85 51.5t106 17.5q45 0 83.5 -11t69.5 -30t53 -46t33 -58q4 -13 8 -33t5 -43q1 -9 1 -17q0 -15 -1 -30q-3 -25 -11 -46h-315q2 -10 6.5 -24t15.5 -27t30 -22 t51 -9q13 0 28.5 1t33.5 6t38 14.5t40 26.5zM280 379q-23 0 -37.5 -9t-23 -21.5t-12 -26.5t-4.5 -23h151q0 14 -3 28.5t-10.5 26t-22 18.5t-38.5 7z" />
<glyph unicode="f" horiz-adv-x="386" d="M351 628q-8 4 -21.5 7t-33.5 3q-32 0 -32 -53v-85h91v-130h-91v-239h60v-131h-298v131h40v239h-41v130h41v85q0 21 5.5 52.5t26 60.5t59.5 49.5t107 20.5q19 0 41 -2t42 -5.5t37 -8t27 -9.5z" />
<glyph unicode="g" horiz-adv-x="640" d="M77 -6q9 -8 26.5 -18.5t40.5 -21t50.5 -17.5t56.5 -7q34 0 56 9t35.5 22.5t19 30t5.5 32.5v34q-5 -7 -15 -16.5t-24.5 -18t-34 -14.5t-43.5 -6q-65 0 -110.5 21.5t-74 56.5t-42 80t-13.5 92q0 58 16 105.5t47.5 81t78.5 52t109 18.5q33 0 62 -13t44 -28l20 31h238v-131 h-60v-299q0 -62 -19 -112.5t-58 -86.5t-97.5 -56t-137.5 -20q-41 0 -76.5 9t-65 22t-51.5 28.5t-36 28.5zM223 255q0 -23 5 -45t14.5 -39t22.5 -28t30 -11q15 0 28.5 9t23.5 25.5t15 39.5q4 20 4 44v10q0 25 -6 47t-16 38.5t-23 25.5t-27 9q-32 0 -51.5 -34t-19.5 -91z" />
<glyph unicode="h" horiz-adv-x="661" d="M339 0h-314v131h42v489h-42v130h242v-312q4 7 19 20t36.5 26.5t48 23.5t53.5 10q58 0 92.5 -19.5t53 -51t24 -71t5.5 -78.5v-167h47v-131h-257v272q0 13 -1 29t-6.5 30t-17.5 24t-34 10q-19 0 -31.5 -8.5t-19.5 -22t-9.5 -30t-2.5 -32.5v-141h72v-131z" />
<glyph unicode="i" horiz-adv-x="330" d="M305 0h-280v131h42v239h-42v130h232v-369h48v-131zM53 646q0 17 7 35t20.5 33t34 24.5t46.5 9.5t46.5 -9.5t34.5 -24.5t21.5 -33t7.5 -35q0 -42 -28 -71.5t-82 -29.5q-24 0 -43.5 9t-34 23.5t-22.5 32.5t-8 36z" />
<glyph unicode="j" horiz-adv-x="360" d="M128 370h-42v130h232v-430q0 -47 -10 -96t-42 -90t-92 -67t-160 -26v134q43 0 66.5 16t34 38.5t12 47.5t1.5 43v300zM114 646q0 17 7 35t20.5 33t34 24.5t46.5 9.5t46.5 -9.5t34.5 -24.5t21.5 -33t7.5 -35q0 -42 -28 -71.5t-82 -29.5q-24 0 -43.5 9t-34 23.5t-22.5 32.5 t-8 36z" />
<glyph unicode="k" horiz-adv-x="654" d="M38 0v130h41v489h-41v131h231v-452l116 69h-72v132h280v-132h-77l-68 -43l135 -193h50v-131h-296v131h42l-76 108l-35 -24v-84h37v-131h-267z" />
<glyph unicode="l" horiz-adv-x="332" d="M317 0h-292v131h43v490h-42v129h232v-619h59v-131z" />
<glyph unicode="m" horiz-adv-x="908" d="M322 0h-297v131h42v236h-42v132h189l22 -59l18 20q11 12 27 24t36 20.5t44 8.5q38 0 63.5 -8t42.5 -19t27 -23.5t16 -21.5q23 26 59 49t88 23q61 0 97.5 -20.5t56.5 -54t26.5 -76.5t6.5 -89v-138h49v-135h-254v245q0 18 1 39v8q0 17 -2 33q-3 19 -11 31.5t-26 12.5 q-32 0 -42.5 -20.5t-10.5 -52.5v-162h60v-134h-259v255q0 61 -6 87.5t-36 26.5q-24 0 -34.5 -14.5t-10.5 -45.5v-178h60v-131z" />
<glyph unicode="n" horiz-adv-x="647" d="M333 0h-308v131h42v239h-42v130h213l23 -62q26 35 60.5 57.5t82.5 22.5q58 0 93.5 -19.5t55 -51t26 -71t6.5 -78.5v-167h47v-131h-252v273q0 13 -0.5 29t-5.5 30t-16.5 24t-33.5 10q-19 0 -31.5 -8.5t-19.5 -22t-9.5 -30t-2.5 -32.5v-142h72v-131z" />
<glyph unicode="o" horiz-adv-x="574" d="M290 -13q-54 0 -104.5 16.5t-89.5 49.5t-62 83q-23 48 -23 111v5q0 63 23.5 111.5t62 81.5t87.5 50t101 17q59 -1 109.5 -18.5t87.5 -51.5t58.5 -82.5t22.5 -111.5v-5q0 -59 -21 -105q-21 -49 -58 -82.5t-87 -51t-107 -17.5zM290 115q16 0 28.5 10t21.5 28t13.5 42.5 t4.5 52.5q0 57 -19 95t-54 39q-15 0 -27.5 -10t-21.5 -28t-14.5 -42t-5.5 -51q0 -62 21 -99t53 -37z" />
<glyph unicode="p" horiz-adv-x="638" d="M413 244q0 22 -5 44.5t-14.5 39.5t-23 28t-29.5 11q-15 0 -28.5 -9t-23.5 -25.5t-15 -40.5q-5 -17 -5 -37q0 -8 1 -16q0 -26 6 -47.5t16 -38t23 -25.5t27 -9q32 0 51.5 34t19.5 91zM25 -73h42v440h-42v133h229l17 -35q7 5 18.5 12.5t26.5 14t34 11.5t42 5q58 0 102.5 -21 t74 -57t44.5 -83.5t15 -100.5q0 -60 -17.5 -107.5t-48 -80.5t-72.5 -51t-90 -18q-31 0 -54.5 5t-39 12t-24.5 13.5t-12 8.5v-101h54v-131h-299v131z" />
<glyph unicode="q" horiz-adv-x="660" d="M383 257q0 22 -5 44.5t-14.5 39.5t-23 28t-29.5 11q-15 0 -28.5 -9t-23.5 -25.5t-15 -39.5q-5 -18 -5 -38q0 -8 1 -16q0 -26 6 -47.5t16 -38t23 -25.5t27 -9q32 0 51.5 34t19.5 91zM318 -99h65v132q-17 -14 -50 -28t-78 -14q-48 0 -90 18.5t-73 52.5t-49 82.5t-18 108.5 q0 65 18.5 113t51 80t76 48t93.5 16q49 0 80 -15t39 -25l19 30h233v-130h-49v-466h49v-134h-317v131z" />
<glyph unicode="r" horiz-adv-x="414" d="M308 0h-283v131h44v239h-43v130h188l30 -64q10 18 21 34t28 28.5t42 19.5t64 7v-180q-68 0 -104.5 -22.5t-36.5 -88.5v-103h50v-131z" />
<glyph unicode="s" horiz-adv-x="508" d="M15 0v180h134q0 -20 12.5 -33t29.5 -20.5t35 -10.5t29 -3q15 0 29.5 6.5t14.5 27.5q0 11 -13 18.5t-33.5 13.5t-47 12.5t-53.5 15.5q-26 9 -49.5 22t-42.5 32t-30 45t-11 61q0 38 17.5 65.5t44 45t57 26t57.5 8.5q51 0 92 -23t57 -55l8 66h123v-180h-130q0 16 -9 29.5 t-23.5 24t-32.5 16.5t-37 6q-16 0 -27.5 -8.5t-11.5 -27.5q0 -11 10 -18.5t27.5 -14.5t39.5 -14l46 -15q28 -10 57 -21.5t52 -29t37.5 -44t14.5 -65.5q0 -35 -15.5 -63t-41 -47.5t-59.5 -29.5t-70 -10q-54 0 -94.5 22t-58.5 51l-9 -61h-125z" />
<glyph unicode="t" horiz-adv-x="363" d="M15 500h54v92l184 59v-151h95v-130h-95v-178q0 -13 -0.5 -27t2 -26t9 -19.5t21.5 -7.5q10 0 29.5 5.5t33.5 11.5v-128q-11 -5 -28 -8.5t-35 -5.5t-33.5 -3.5t-24.5 -1.5q-56 0 -87.5 15t-46.5 42t-19 66t-5 87v178h-54v130z" />
<glyph unicode="u" horiz-adv-x="631" d="M15 500h242v-241q0 -65 11.5 -95.5t42.5 -30.5q26 0 44.5 21t18.5 55v159h-66v132h259v-367h49v-133h-189l-27 63l-20 -23q-11 -13 -27.5 -25t-39.5 -20.5t-55 -8.5q-57 0 -95.5 15t-62 45t-33.5 76t-10 108v138h-42v132z" />
<glyph unicode="v" horiz-adv-x="613" d="M330 162q0 8 2.5 20.5t6.5 27.5t9.5 31t11.5 31l48 101h-53v127h258v-127h-52l-173 -373h-155l-186 373h-47v127h304v-127h-50l46 -106q10 -29 17 -59t9 -46h4z" />
<glyph unicode="w" horiz-adv-x="872" d="M284 153q1 15 3.5 40t7 56t12 66.5t18.5 72.5l32 112h185l38 -130q9 -29 16.5 -61.5t12.5 -62.5t8.5 -55t5.5 -38h2q1 12 3 31l6 40q3 22 7.5 44.5t10.5 42.5l17 59h-41v130h244v-130h-41l-117 -370h-211l-69 226l-72 -226h-206l-113 370h-43v130h269v-130h-34l22 -73 q5 -18 9.5 -38.5t7.5 -40.5t5 -37t3 -28h2z" />
<glyph unicode="x" horiz-adv-x="649" d="M375 500h255v-125h-66l-106 -107l126 -144h47v-124h-319v124h47l-76 81l-72 -81h65v-124h-256v124h67l102 115l-124 136h-45v125h324v-125h-47l70 -76l75 76h-67v125z" />
<glyph unicode="y" horiz-adv-x="580" d="M382 373h-46v127h254v-124h-48l-190 -462q-11 -23 -25.5 -48t-38.5 -46t-60.5 -34t-90.5 -13q-39 2 -68.5 16t-52.5 34l75 118q13 -11 27.5 -21t30.5 -13q12 -2 22 1.5t18 11.5t14 18.5t10 21.5l14 42l-195 370h-41v128h308v-127h-47l65 -156z" />
<glyph unicode="z" horiz-adv-x="553" d="M25 300v200h495v-129l-238 -240h105v68h141v-199h-503v131l241 240h-111v-71h-130z" />
<glyph unicode="|" horiz-adv-x="333" d="M233 701v-905h-133v905h133z" />
<glyph unicode="&#xaa;" d="M36 458q15 9 38 21t51.5 23.5t61 19t67.5 7.5q45 0 93 -9.5t87.5 -33t65 -63.5t25.5 -100v-195h60v-128h-214l-24 45q-14 -19 -31.5 -31.5t-36 -19.5t-36.5 -10t-31 -3q-36 0 -71 10t-63 30t-45.5 51.5t-17.5 75.5q0 42 16.5 76t45 58t66.5 37t80 13q22 0 39.5 -4.5 t30 -10.5t20 -12t9.5 -8v35q0 34 -27 45t-68 11q-45 0 -82.5 -15t-66.5 -31zM258 111q23 0 40 11t24 22v38q-1 2 -4.5 6.5t-10.5 9.5t-17.5 9t-26.5 4q-30 0 -44 -15t-14 -38q0 -21 15 -34t38 -13z" />
<glyph unicode="&#xad;" horiz-adv-x="340" d="M25 305h290v-133h-290v133z" />
<glyph unicode="&#xb2;" horiz-adv-x="590" d="M33 586q53 61 119 92.5t141 31.5q50 0 93.5 -15t75.5 -43.5t50.5 -69t18.5 -91.5q0 -43 -10 -74t-30 -55.5t-50 -46.5t-70 -48q-18 -12 -40.5 -28.5t-44 -35t-39 -37t-26.5 -33.5h176v80h168v-213h-540v145q21 34 37 57.5t32.5 42t34.5 35t42 35.5q27 24 58 44t57.5 39.5 t44 40t17.5 43.5q0 38 -24.5 52t-59.5 14q-20 0 -37.5 -7.5t-33 -18.5t-28.5 -24l-24 -26z" />
<glyph unicode="&#xb3;" horiz-adv-x="540" d="M248 -13q-36 0 -71 9.5t-66.5 25t-56 36t-39.5 42.5l102 106q28 -28 58.5 -46.5t73.5 -18.5q42 0 66 19.5t24 57.5q0 41 -22.5 57t-60.5 16h-75v119h73q36 0 60.5 17.5t24.5 51.5q0 20 -8 35t-20.5 24.5t-28 14.5t-31.5 5q-29 0 -60 -16t-57 -44l-97 117q13 15 35.5 31.5 t51 30.5t61 23.5t66.5 9.5q61 0 108.5 -15t80 -43t49.5 -67t17 -87q0 -26 -8 -46t-19.5 -35.5t-24 -27t-22.5 -18.5q12 -9 28 -23t30.5 -34t24.5 -46.5t10 -60.5q0 -56 -24.5 -97t-63.5 -68.5t-88.5 -41t-100.5 -13.5z" />
<glyph unicode="&#xb9;" horiz-adv-x="496" d="M25 568l41 20q20 10 40.5 23.5t43.5 34t50 53.5h178v-566h93v-133h-400v133h100v371l-100 -47z" />
<glyph unicode="&#xba;" horiz-adv-x="574" d="M290 -13q-54 0 -104.5 16.5t-89.5 49.5t-62 83q-23 48 -23 111v5q0 63 23.5 111.5t62 81.5t87.5 50t101 17q59 -1 109.5 -18.5t87.5 -51.5t58.5 -82.5t22.5 -111.5v-5q0 -59 -21 -105q-21 -49 -58 -82.5t-87 -51t-107 -17.5zM290 115q16 0 28.5 10t21.5 28t13.5 42.5 t4.5 52.5q0 57 -19 95t-54 39q-15 0 -27.5 -10t-21.5 -28t-14.5 -42t-5.5 -51q0 -62 21 -99t53 -37z" />
<glyph unicode="&#xbf;" horiz-adv-x="520" d="M518 -25q-53 -61 -119 -95t-141 -34q-50 0 -93.5 13t-75.5 39t-50.5 64t-18.5 89q0 32 12 57t29.5 45t38.5 35l38 30q17 14 29 27t12 28v55h185l1 -80q0 -23 -12 -43t-29.5 -37.5t-37.5 -33.5l-38 -30q-18 -14 -30 -27.5t-12 -27.5t6.5 -23.5t17 -14.5t24 -7t26.5 -2 q16 0 33.5 7t35 19t33 26.5t28.5 29.5zM391 459q0 -19 -7.5 -38t-22.5 -34t-36 -24.5t-48 -9.5t-48.5 8.5t-37.5 23t-24.5 34t-8.5 40.5q0 42 32 72.5t87 30.5q24 0 45 -9t36.5 -23t24 -33t8.5 -38z" />
<glyph unicode="&#xc2;" horiz-adv-x="823" d="M442 1175l215 -397h-178l-109 224l-112 -224h-178l217 397h145zM808 0h-401v131h95l-21 68h-205l-21 -68h78v-131h-318v131h68l135 439h-41v129h384l177 -568h70v-131zM313 319h131l-66 216z" />
<glyph unicode="&#xc5;" horiz-adv-x="823" d="M808 0h-401v131h95l-21 68h-205l-21 -68h78v-131h-318v131h68l135 439h-41v129h384l177 -568h70v-131zM313 319h131l-66 216z" />
<glyph unicode="&#xca;" horiz-adv-x="653" d="M400 1175l215 -397h-178l-109 224l-112 -224h-178l217 397h145zM25 699h603v-221h-173v89h-160v-138h190v-133h-190v-163h160v93h173v-226h-603v133h63v434h-63v132z" />
<glyph unicode="&#xce;" horiz-adv-x="382" d="M264 1175l215 -397h-178l-109 224l-112 -224h-178l217 397h145zM25 699h332v-132h-62v-434h62v-133h-332v133h63v434h-63v132z" />
<glyph unicode="&#xd4;" horiz-adv-x="740" d="M440 1175l215 -397h-178l-109 224l-112 -224h-178l217 397h145zM373 -18q-78 0 -144 23t-113.5 69t-74 115.5t-26.5 163.5q0 81 25.5 148t72 115.5t111 75t142.5 26.5q92 0 159.5 -26.5t112 -75t66 -117.5t21.5 -153q0 -85 -23 -152.5t-68 -114.5t-110.5 -72t-150.5 -25z M373 139q24 0 42.5 15t32 42t20.5 65t7 85q0 45 -6.5 85t-20 69.5t-34 46.5t-49.5 17q-23 0 -42 -15.5t-32.5 -43.5t-21 -67t-7.5 -85q0 -49 8.5 -88.5t23 -67.5t35 -43t44.5 -15z" />
<glyph unicode="&#xdb;" horiz-adv-x="737" d="M442 1175l215 -397h-178l-109 224l-112 -224h-178l217 397h145zM15 699h318v-129h-54v-216q0 -60 6.5 -98t19.5 -59.5t31.5 -29.5t42.5 -8q23 0 41.5 6.5t32 27t20.5 59t7 103.5v212h-54v132h296v-129h-54v-243q0 -178 -73 -261t-214 -83q-152 5 -231 86.5t-79 252.5v247 h-56v130z" />
<glyph unicode="&#xe2;" d="M328 986l215 -397h-178l-109 224l-112 -224h-178l217 397h145zM36 458q15 9 38 21t51.5 23.5t61 19t67.5 7.5q45 0 93 -9.5t87.5 -33t65 -63.5t25.5 -100v-195h60v-128h-214l-24 45q-14 -19 -31.5 -31.5t-36 -19.5t-36.5 -10t-31 -3q-36 0 -71 10t-63 30t-45.5 51.5 t-17.5 75.5q0 42 16.5 76t45 58t66.5 37t80 13q22 0 39.5 -4.5t30 -10.5t20 -12t9.5 -8v35q0 34 -27 45t-68 11q-45 0 -82.5 -15t-66.5 -31zM258 111q23 0 40 11t24 22v38q-1 2 -4.5 6.5t-10.5 9.5t-17.5 9t-26.5 4q-30 0 -44 -15t-14 -38q0 -21 15 -34t38 -13z" />
<glyph unicode="&#xe5;" d="M36 458q15 9 38 21t51.5 23.5t61 19t67.5 7.5q45 0 93 -9.5t87.5 -33t65 -63.5t25.5 -100v-195h60v-128h-214l-24 45q-14 -19 -31.5 -31.5t-36 -19.5t-36.5 -10t-31 -3q-36 0 -71 10t-63 30t-45.5 51.5t-17.5 75.5q0 42 16.5 76t45 58t66.5 37t80 13q22 0 39.5 -4.5 t30 -10.5t20 -12t9.5 -8v35q0 34 -27 45t-68 11q-45 0 -82.5 -15t-66.5 -31zM258 111q23 0 40 11t24 22v38q-1 2 -4.5 6.5t-10.5 9.5t-17.5 9t-26.5 4q-30 0 -44 -15t-14 -38q0 -21 15 -34t38 -13z" />
<glyph unicode="&#xea;" horiz-adv-x="542" d="M348 971l215 -397h-178l-109 224l-112 -224h-178l217 397h145zM527 69q-56 -48 -118 -67.5t-140 -19.5q-47 0 -94 15.5t-84.5 48t-61.5 84t-24 123.5q0 61 21 109.5t57 82.5t85 51.5t106 17.5q45 0 83.5 -11t69.5 -30t53 -46t33 -58q4 -13 8 -33t5 -43q1 -9 1 -17 q0 -15 -1 -30q-3 -25 -11 -46h-315q2 -10 6.5 -24t15.5 -27t30 -22t51 -9q13 0 28.5 1t33.5 6t38 14.5t40 26.5zM280 379q-23 0 -37.5 -9t-23 -21.5t-12 -26.5t-4.5 -23h151q0 14 -3 28.5t-10.5 26t-22 18.5t-38.5 7z" />
<glyph unicode="&#xee;" horiz-adv-x="330" d="M234 1205l215 -397h-178l-109 224l-112 -224h-178l217 397h145zM305 0h-280v131h42v239h-42v130h232v-369h48v-131zM53 646q0 17 7 35t20.5 33t34 24.5t46.5 9.5t46.5 -9.5t34.5 -24.5t21.5 -33t7.5 -35q0 -42 -28 -71.5t-82 -29.5q-24 0 -43.5 9t-34 23.5t-22.5 32.5 t-8 36z" />
<glyph unicode="&#xf4;" horiz-adv-x="574" d="M358 969l215 -397h-178l-109 224l-112 -224h-178l217 397h145zM290 -13q-54 0 -104.5 16.5t-89.5 49.5t-62 83q-23 48 -23 111v5q0 63 23.5 111.5t62 81.5t87.5 50t101 17q59 -1 109.5 -18.5t87.5 -51.5t58.5 -82.5t22.5 -111.5v-5q0 -59 -21 -105q-21 -49 -58 -82.5 t-87 -51t-107 -17.5zM290 115q16 0 28.5 10t21.5 28t13.5 42.5t4.5 52.5q0 57 -19 95t-54 39q-15 0 -27.5 -10t-21.5 -28t-14.5 -42t-5.5 -51q0 -62 21 -99t53 -37z" />
<glyph unicode="&#xfb;" horiz-adv-x="631" d="M364 969l215 -397h-178l-109 224l-112 -224h-178l217 397h145zM15 500h242v-241q0 -65 11.5 -95.5t42.5 -30.5q26 0 44.5 21t18.5 55v159h-66v132h259v-367h49v-133h-189l-27 63l-20 -23q-11 -13 -27.5 -25t-39.5 -20.5t-55 -8.5q-57 0 -95.5 15t-62 45t-33.5 76t-10 108 v138h-42v132z" />
<glyph unicode="&#x152;" horiz-adv-x="1393" d="M765 699h603v-221h-173v89h-160v-138h190v-133h-190v-163h160v93h173v-226h-603v133h63v434h-63v132zM373 -18q-78 0 -144 23t-113.5 69t-74 115.5t-26.5 163.5q0 81 25.5 148t72 115.5t111 75t142.5 26.5q92 0 159.5 -26.5t112 -75t66 -117.5t21.5 -153 q0 -85 -23 -152.5t-68 -114.5t-110.5 -72t-150.5 -25zM373 139q24 0 42.5 15t32 42t20.5 65t7 85q0 45 -6.5 85t-20 69.5t-34 46.5t-49.5 17q-23 0 -42 -15.5t-32.5 -43.5t-21 -67t-7.5 -85q0 -49 8.5 -88.5t23 -67.5t35 -43t44.5 -15z" />
<glyph unicode="&#x153;" horiz-adv-x="1116" d="M1101 69q-56 -48 -118 -67.5t-140 -19.5q-47 0 -94 15.5t-84.5 48t-61.5 84t-24 123.5q0 61 21 109.5t57 82.5t85 51.5t106 17.5q45 0 83.5 -11t69.5 -30t53 -46t33 -58q4 -13 8 -33t5 -43q1 -9 1 -17q0 -15 -1 -30q-3 -25 -11 -46h-315q2 -10 6.5 -24t15.5 -27t30 -22 t51 -9q13 0 28.5 1t33.5 6t38 14.5t40 26.5zM854 379q-23 0 -37.5 -9t-23 -21.5t-12 -26.5t-4.5 -23h151q0 14 -3 28.5t-10.5 26t-22 18.5t-38.5 7zM290 -13q-54 0 -104.5 16.5t-89.5 49.5t-62 83q-23 48 -23 111v5q0 63 23.5 111.5t62 81.5t87.5 50t101 17 q59 -1 109.5 -18.5t87.5 -51.5t58.5 -82.5t22.5 -111.5v-5q0 -59 -21 -105q-21 -49 -58 -82.5t-87 -51t-107 -17.5zM290 115q16 0 28.5 10t21.5 28t13.5 42.5t4.5 52.5q0 57 -19 95t-54 39q-15 0 -27.5 -10t-21.5 -28t-14.5 -42t-5.5 -51q0 -62 21 -99t53 -37z" />
<glyph unicode="&#x2c6;" horiz-adv-x="597" d="M372 700l215 -397h-178l-109 224l-112 -224h-178l217 397h145z" />
<glyph unicode="&#x2da;" horiz-adv-x="833" />
<glyph unicode="&#x2000;" horiz-adv-x="602" />
<glyph unicode="&#x2001;" horiz-adv-x="1205" />
<glyph unicode="&#x2002;" horiz-adv-x="602" />
<glyph unicode="&#x2003;" horiz-adv-x="1205" />
<glyph unicode="&#x2004;" horiz-adv-x="401" />
<glyph unicode="&#x2005;" horiz-adv-x="301" />
<glyph unicode="&#x2006;" horiz-adv-x="200" />
<glyph unicode="&#x2007;" horiz-adv-x="200" />
<glyph unicode="&#x2008;" horiz-adv-x="150" />
<glyph unicode="&#x2009;" horiz-adv-x="241" />
<glyph unicode="&#x200a;" horiz-adv-x="66" />
<glyph unicode="&#x2010;" horiz-adv-x="340" d="M25 305h290v-133h-290v133z" />
<glyph unicode="&#x2011;" horiz-adv-x="340" d="M25 305h290v-133h-290v133z" />
<glyph unicode="&#x2013;" horiz-adv-x="447" d="M32 305h377v-133h-377v133z" />
<glyph unicode="&#x2014;" horiz-adv-x="631" d="M42 305h539v-133h-539v133z" />
<glyph unicode="&#x2019;" horiz-adv-x="273" d="M234 701l-36 -299h-125l-37 299h198z" />
<glyph unicode="&#x201c;" horiz-adv-x="504" d="M227 701l-30 -299h-125l-37 299h192zM469 701l-36 -299h-125l-31 299h192z" />
<glyph unicode="&#x201d;" horiz-adv-x="504" d="M227 701l-30 -299h-125l-37 299h192zM469 701l-36 -299h-125l-31 299h192z" />
<glyph unicode="&#x2022;" horiz-adv-x="348" d="M60 322q0 19 7.5 39.5t21.5 37t35.5 27t48.5 10.5t48.5 -10.5t36.5 -27t22.5 -37t7.5 -39.5q0 -45 -29 -76.5t-86 -31.5q-25 0 -45.5 9.5t-35.5 24.5t-23.5 34.5t-8.5 39.5z" />
<glyph unicode="&#x2026;" horiz-adv-x="774" d="M531 104q0 19 7.5 39.5t21.5 37t35.5 27t48.5 10.5t48.5 -10.5t36.5 -27t22.5 -37t7.5 -39.5q0 -45 -29 -76.5t-86 -31.5q-25 0 -45.5 9.5t-35.5 24.5t-23.5 34.5t-8.5 39.5zM273 104q0 19 7.5 39.5t21.5 37t35.5 27t48.5 10.5t48.5 -10.5t36.5 -27t22.5 -37t7.5 -39.5 q0 -45 -29 -76.5t-86 -31.5q-25 0 -45.5 9.5t-35.5 24.5t-23.5 34.5t-8.5 39.5zM15 104q0 19 7.5 39.5t21.5 37t35.5 27t48.5 10.5t48.5 -10.5t36.5 -27t22.5 -37t7.5 -39.5q0 -45 -29 -76.5t-86 -31.5q-25 0 -45.5 9.5t-35.5 24.5t-23.5 34.5t-8.5 39.5z" />
<glyph unicode="&#x202f;" horiz-adv-x="241" />
<glyph unicode="&#x2039;" horiz-adv-x="549" d="M35 464l430 177l49 -122l-306 -117l306 -118l-49 -122l-430 177v125z" />
<glyph unicode="&#x203a;" horiz-adv-x="549" d="M514 340l-430 -177l-49 122l306 117l-306 118l49 122l430 -177v-125z" />
<glyph unicode="&#x205f;" horiz-adv-x="301" />
<glyph unicode="&#x2122;" horiz-adv-x="1709" d="M1420 523q-3 -17 -7 -37l-8 -38l-8 -34q-3 -16 -6 -25l-105 -389h-209l-56 200l-56 199q-2 6 -5 19.5t-6 30.5t-6 36t-4 38h-4v-394h57v-129h-271v129h54v441h-53v129h379l101 -374l96 374h381v-129h-55v-440h55v-130h-316v130h57l-1 334v59h-4zM686 699v-260h-147v128 h-84v-434h83v-133h-372v133h82v434h-86v-128h-147v260h671z" />
</font>
</defs>
</svg>
