<?xml version="1.0" standalone="no"?>
<!DOCTYPE svg PUBLIC "-//W3C//DTD SVG 1.1//EN" "http://www.w3.org/Graphics/SVG/1.1/DTD/svg11.dtd" >
<svg xmlns="http://www.w3.org/2000/svg">
<metadata>
This is a custom SVG webfont generated by Font Squirrel.
Designer    : Based on the typeface in a 1743 English translation of the essays of Montaigne.  PostScript/TrueType font designed by John Stracke.
Foundry URL : http://www.thibault.org/fonts/
</metadata>
<defs>
<font id="webfontJXSJmflx" horiz-adv-x="560" >
<font-face units-per-em="1024" ascent="759" descent="-265" />
<missing-glyph horiz-adv-x="474" />
<glyph unicode=" "  horiz-adv-x="474" />
<glyph unicode="&#x09;" horiz-adv-x="474" />
<glyph unicode="&#xa0;" horiz-adv-x="474" />
<glyph unicode="!" horiz-adv-x="301" d="M180 237q-21 -23 -39 -23q-7 0 -15 5q-9 60 -9 100q0 7 0.5 20.5t0.5 21.5q0 18 -1 29q-1 27 -6 108.5t-5 129.5q0 21 2 77q25 31 59 31q28 0 53 -22q1 -32 1 -81q0 -85 -11 -198l-5 -47q-2 -18 -4.5 -30.5t-8.5 -46t-12 -74.5zM117 12q-18 10 -18 36v9q5 39 36 54 q18 8 34 8q24 0 38 -17q12 -15 12 -34q0 -26 -21 -47q-19 -19 -45 -19q-20 0 -36 10z" />
<glyph unicode="&#x22;" horiz-adv-x="538" d="M392 753q40 0 75 -35.5t35 -84.5q0 -19 -10 -71q-3 -18 -28.5 -53.5t-25.5 -83.5q0 -14 2 -41t2 -39q0 -34 -14 -52.5t-52 -19.5q-10 10 -10 55q0 13 1 50.5t1 60.5q0 35 -1 53q-32 19 -42 32.5t-20 42.5q-8 21 -8 44t11 56q1 2 4.5 15t5.5 18l7 15q5 11 11 15l13 12 q8 6 19 8.5t24 2.5zM142 753q40 0 75 -35.5t35 -84.5q0 -19 -10 -71q-3 -18 -28.5 -53.5t-25.5 -83.5q0 -14 2 -41t2 -39q0 -34 -14 -52.5t-52 -19.5q-10 10 -10 55q0 13 1 50.5t1 60.5q0 35 -1 53q-32 19 -42 32.5t-20 42.5q-8 21 -8 44t11 56q1 2 4.5 15t5.5 18l7 15 q5 11 11 15l13 12q8 6 19 8.5t24 2.5z" />
<glyph unicode="#" horiz-adv-x="512" d="M283 442q9 25 27 44q14 14 27 14q19 0 36 -22q13 -19 19 -40q33 -5 51 -22q23 -20 23 -42q0 -16 -14 -30q-18 -19 -53 -28q0 -9 1 -14q1 -9 4 -29t4 -30q21 -6 35 -19q23 -20 23 -42q0 -16 -14 -30q-19 -19 -50 -27q-5 -26 -20 -43q-21 -24 -42 -24q-16 0 -30 14 q-17 18 -25 44h-8l-69 -3q-7 -20 -18 -31q-21 -24 -42 -24q-16 0 -30 14q-19 20 -27 51q-30 9 -53 29q-13 12 -13 27q0 19 22 36q17 13 35 17v16l-3 71q-22 9 -41 25q-13 12 -13 27q0 19 22 36q20 14 39 18q10 37 32 61q14 14 27 14q19 0 36 -22q15 -19 20 -46q3 0 11 1 t11 1l29 4q21 3 31 4zM272 308q-44 -2 -64 -3v-3q1 -9 4 -29.5t4 -31.5q2 1 7 1q11 1 28 3.5t23 3.5q-2 40 -2 59z" />
<glyph unicode="$" horiz-adv-x="314" d="M177 42l-5 -1l-14 -3q-9 -1 -17 -1q-33 0 -45 20q-4 20 -4 38q0 8 0.5 16.5t0.5 9.5v1q-3 1 -12.5 3t-13 3t-10.5 4t-10.5 5.5t-8 6.5t-8.5 10q-21 32 -21 57q0 21 16 52q4 10 11 10q9 0 25.5 -25.5t37.5 -50.5t41 -25h4q28 3 45 24t18 50v2q0 8 -2 15t-8 14t-9 10 t-14 11.5t-13 10.5q-17 14 -64 20.5t-61 32.5q-20 38 -20 64q0 4 0.5 12.5t0.5 14.5q1 40 23 66.5t64 52.5q3 2 4 14t2.5 35t3.5 40q33 11 42 11q23 0 30 -20v-13q0 -11 -1.5 -26t-1.5 -18q0 -10 7 -11q60 -16 79 -63q7 -17 7 -28q0 -16 -18 -52q-3 -6 -6 -6q-5 0 -11.5 13 t-15.5 29t-18 22q-36 24 -49 24q-9 0 -14 -2q-20 -6 -33 -20.5t-13 -32.5q0 -7 1 -10q5 -25 45 -36.5t51 -20.5q9 -7 30 -22t30 -23t20.5 -23.5t17.5 -33.5q9 -27 9 -50q0 -37 -26 -75q-12 -17 -28.5 -27.5t-29.5 -14.5t-40 -10q-2 0 -2 -12q0 -8 1 -29.5t1 -28.5 q0 -10 -1 -10z" />
<glyph unicode="%" horiz-adv-x="793" d="M184 540q34 17 45 53q3 11 3 20q0 19 -12 43q-14 25 -34 33q-19 8 -35 8q-18 0 -35 -10q-25 -13 -36 -49q-5 -17 -5 -29q0 -17 10 -34q17 -30 55 -39q10 -3 19 -3q12 0 25 7zM109 506q-50 26 -67 67q-10 28 -10 48q0 26 15 56q20 38 57 54q24 9 44 9q17 0 51 -9 q55 -18 74 -50q18 -30 18 -59q0 -24 -9 -49q-18 -57 -65 -76q-24 -10 -46 -10q-28 0 -62 19zM619 102q34 17 45 53q3 11 3 20q0 19 -12 43q-14 25 -34 33q-19 8 -35 8q-18 0 -35 -10q-25 -13 -36 -49q-5 -17 -5 -29q0 -17 10 -34q17 -30 55 -39q11 -3 19 -3q12 0 25 7z M544 68q-50 26 -67 67q-10 28 -10 48q0 26 15 56q20 38 57 54q24 9 44 9q17 0 51 -9q55 -18 74 -50q18 -30 18 -59q0 -24 -9 -49q-18 -57 -65 -76q-24 -10 -46 -10q-28 0 -62 19zM26 79q0 20 20.5 32.5t33.5 12.5q9 0 25 -5t23 -5q10 0 17 8l77 92l64 78l47 56l57 64l63 65 q48 53 82.5 108t76.5 101q-3 10 -28 12.5t-25 20.5q0 16 18 26q42 0 72 2.5t31 2.5q12 0 85 -25q7 -8 7 -20t-7.5 -23.5t-18.5 -11.5q-5 0 -15 3t-16 3q-7 0 -10 -2q-76 -82 -127.5 -155t-82.5 -111q-14 -19 -83 -104.5t-122 -164.5q-1 -4 -8.5 -14.5t-7.5 -17.5 q0 -14 16 -14q3 0 10 1t11 1q15 0 15 -16q0 -12 -20 -28.5t-24 -22.5q-38 0 -79 -3t-58 -3q-37 0 -77 6q-6 7 -17.5 15.5t-18 16.5t-6.5 19z" />
<glyph unicode="&#x26;" horiz-adv-x="943" d="M366 680q0 -16 -12.5 -33.5t-31.5 -17.5q-7 0 -24 4t-25 4q-21 0 -46 -24t-25 -48q0 -39 55 -39h11q16 0 26 -1.5t21.5 -12t11.5 -30.5q0 -29 -37 -62q-14 -13 -42 -13q-5 0 -15 0.5t-15 0.5q-32 0 -40 -21q-26 -66 -26 -102t34 -90q6 -10 13 -18t17 -15l16 -10 q6 -3 20.5 -7.5t18.5 -6t23 -6t22 -5.5q54 -14 92 -14q39 0 85 13q52 14 82 30t53 51q36 53 36 108q0 30 -9 63q-17 65 -63 81q-24 9 -47 9q-34 0 -55.5 -19t-21.5 -38q0 -16 10.5 -28t25.5 -12q11 0 34.5 9t33.5 9q14 0 20.5 -11t6.5 -22q0 -26 -30.5 -51t-69.5 -25 q-38 0 -65 31t-27 74q0 42 23 83q4 7 8 13t10 11t9.5 8.5t12.5 7.5l11 6l13.5 4.5t13 4t15.5 4t15 4.5q12 4 29 4q31 0 88.5 -19.5t78.5 -19.5q18 0 30 10t15 18.5t3 13.5q0 13 -34.5 25.5t-38.5 30.5q-2 14 -2 22q0 37 22 59.5t61 22.5q20 0 38 -5.5t35.5 -27.5t17.5 -58 q0 -86 -55 -136q-15 -14 -41 -14q-7 0 -21.5 1.5t-21.5 1.5q-25 0 -36.5 -12t-11.5 -25q0 -9 8.5 -29.5t8.5 -33.5q1 -23 6 -62t5 -57q0 -52 -37 -100l-23 -32q-17 -22 -25 -31.5t-23 -23.5t-31 -21.5t-36 -11.5q-103 -22 -155 -22t-115 15q-59 14 -94.5 32t-64.5 57 q-62 85 -62 157q0 33 14 73q20 55 34.5 80.5t22.5 26.5t19.5 6t22.5 22q-5 21 -25 45.5t-20 44.5q1 50 17.5 84.5t58.5 59.5q54 33 99 33q30 0 48.5 -18t18.5 -37z" />
<glyph unicode="'" horiz-adv-x="288" d="M142 753q40 0 75 -35.5t35 -84.5q0 -19 -10 -71q-3 -18 -28.5 -53.5t-25.5 -83.5q0 -14 2 -41t2 -39q0 -34 -14 -52.5t-52 -19.5q-10 10 -10 55q0 13 1 50.5t1 60.5q0 35 -1 53q-32 19 -42 32.5t-20 42.5q-8 21 -8 44t11 56q1 2 4.5 15t5.5 18l7 15q5 11 11 15l13 12 q8 6 19 8.5t24 2.5z" />
<glyph unicode="(" horiz-adv-x="256" d="M138 -234q-38 82 -55.5 130.5t-28.5 118.5q-21 137 -21 202q0 80 23 176q23 93 53 154.5t89 124.5q3 3 7 3q8 0 16.5 -8.5t8.5 -16.5q0 -3 -1 -5q-52 -110 -70 -158t-32 -130q-17 -105 -17 -161q0 -66 19 -151q11 -48 22 -73t39 -73t56 -106q2 -3 2 -9q0 -15 -21.5 -26 t-46.5 -11q-33 0 -42 19z" />
<glyph unicode=")" horiz-adv-x="256" d="M143 656q38 -82 55.5 -130.5t28.5 -118.5q21 -137 21 -202q0 -80 -23 -176q-23 -93 -53 -154.5t-89 -124.5q-3 -3 -7 -3q-8 0 -16.5 8.5t-8.5 16.5q0 3 1 5q52 110 70 158t32 130q17 105 17 161q0 66 -19 151q-11 48 -22 73t-39 73t-56 106q-2 3 -2 9q0 15 21.5 26 t46.5 11q33 0 42 -19z" />
<glyph unicode="*" horiz-adv-x="534" d="M418 673q14 0 28 -10.5t14 -23.5q0 -32 -89 -90q19 -4 60 -4t59.5 -7.5t18.5 -31.5q0 -21 -10 -28.5t-30 -7.5q-7 0 -26 1t-31 1q-24 0 -47 -4q12 -21 35 -45t37.5 -42t14.5 -31t-12.5 -23.5t-21.5 -10.5q-11 0 -21 15.5t-27.5 40.5t-40.5 42q-4 -27 -5.5 -56.5t-2 -44.5 t-3.5 -28.5t-12 -18.5t-25 -5q-25 0 -33.5 8t-8.5 27q0 7 1.5 30t1.5 40q0 21 -3 48q-16 -12 -32 -42.5t-31.5 -52t-35.5 -21.5q-16 0 -35.5 14t-19.5 28q0 16 25 35l58 41q33 23 44 43q-12 -1 -56.5 -9t-66.5 -8q-58 0 -58 45q0 23 17 30.5t50 7.5q8 0 24.5 -0.5t25.5 -0.5 q29 0 49 4q-17 19 -45.5 37.5t-45.5 32t-17 26.5q0 12 12.5 25.5t27.5 13.5q9 0 18.5 -5t21.5 -16t21 -21l26 -28l26 -29v19q0 25 -2 57t-2 40q0 21 8 28.5t32 8.5h1q18 0 24.5 -9t6.5 -27q0 -6 -1 -24t-1 -29q0 -33 9 -61q3 5 9 14q20 32 31 47t28.5 30t32.5 15z" />
<glyph unicode="+" horiz-adv-x="346" d="M100 270q2 36 17 58t27.5 27.5t22.5 5.5q20 0 35 -15q23 -20 25 -63q47 0 69.5 -22t22.5 -48q0 -10 -4.5 -22t-24 -26.5t-52.5 -16.5l-2 -20q-1 -4 -3.5 -15.5t-7.5 -18t-13 -12.5q-22 -15 -42 -15q-10 0 -22 4t-26.5 23t-16.5 51q-39 3 -60 24t-21 41q0 9 4 20.5 t22.5 25.5t49.5 14z" />
<glyph unicode="," horiz-adv-x="322" d="M72 76q0 51 26 75.5t55 24.5q21 0 54 -14q35 -14 51 -54q12 -28 12 -56q0 -24 -6 -52q-9 -48 -22.5 -79.5t-43.5 -64.5q-22 -23 -37 -31t-41 -8q-55 0 -55 37q0 14 13.5 24.5t30.5 16.5t30.5 21.5t13.5 39.5q0 21 -11.5 33t-25.5 15t-26.5 10.5t-14.5 21.5q-3 21 -3 40z " />
<glyph unicode="-" horiz-adv-x="346" d="M33 183q-9 12 -9 27q0 18 15 36q14 16 31 20q16 5 39 5q3 0 5 -1h8q21 0 34 3q62 10 65 10q54 0 76 -21.5t22 -48.5q0 -16 -10 -30q-8 -12 -16.5 -19t-23.5 -10.5t-21.5 -4.5t-29 -1.5t-26.5 -0.5q-3 0 -29.5 -1.5t-39.5 -1.5q-62 0 -90 39z" />
<glyph unicode="." horiz-adv-x="303" d="M104 15q-18 5 -27 27q-12 28 -12 52q0 26 12 47q23 45 63 45t63 -45q15 -27 15 -54q0 -25 -15 -45q-25 -32 -65 -32q-14 0 -34 5z" />
<glyph unicode="/" horiz-adv-x="793" d="M26 79q0 20 20.5 32.5t33.5 12.5q9 0 25 -5t23 -5q10 0 17 8l77 92l64 78l47 56l57 64l63 65q48 53 82.5 108t76.5 101q-3 10 -28 12.5t-25 20.5q0 16 18 26q42 0 72 2.5t31 2.5q12 0 85 -25q7 -8 7 -20t-7.5 -23.5t-18.5 -11.5q-5 0 -15 3t-16 3q-7 0 -10 -2 q-76 -82 -127.5 -155t-82.5 -111q-14 -19 -83 -104.5t-122 -164.5q-1 -4 -8.5 -14.5t-7.5 -17.5q0 -14 16 -14q3 0 10 1t11 1q15 0 15 -16q0 -12 -20 -28.5t-24 -22.5q-38 0 -79 -3t-58 -3q-37 0 -77 6q-6 7 -17.5 15.5t-18 16.5t-6.5 19z" />
<glyph unicode="0" d="M326 101q70 36 90 106q6 23 6 42q0 36 -24 84q-14 27 -28.5 42t-39.5 25q-36 15 -68 15q-34 0 -71 -19q-52 -27 -72 -99q-10 -35 -10 -58q0 -33 19 -68q18 -33 44 -50t67 -28q19 -6 37 -6q22 0 50 14zM176 33q-51 28 -83 58t-50 77q-20 52 -20 96q0 54 29 111 q21 42 47 66.5t68 41.5q44 18 88 18q39 0 101 -18q58 -17 91.5 -37.5t57.5 -61.5q35 -59 35 -120q0 -43 -17 -96q-19 -58 -49 -94t-82 -58q-51 -21 -93 -21q-56 0 -123 38z" />
<glyph unicode="1" d="M371 404q0 -7 0.5 -57t0.5 -121v-130q2 -6 11 -6t13 -3q8 -10 15.5 -33t7.5 -35q-216 -4 -258 -4q-16 0 -16 22q0 17 8.5 36.5t21.5 19.5q3 0 10.5 -1.5t11.5 -1.5q11 0 16 12q3 129 3 142v161q-6 13 -17 13q-4 0 -10 -1.5t-9 -1.5q-11 0 -17 19t-6 33q0 35 23 52h198 q28 -24 28 -59q0 -18 -10 -40q-3 -6 -8 -3.5t-10.5 0.5t-6.5 -13z" />
<glyph unicode="2" d="M319 521q47 0 79.5 -31.5t32.5 -81.5q0 -29 -15 -83q-11 -41 -57 -84t-60 -65q-7 -24 -7 -26v-1q0 -3 -11 -29h96q3 3 3 8q0 3 -1.5 12t-1.5 14q0 10 6 16q30 13 50 13q22 0 46 -17q-3 -14 -8 -34q-10 -44 -19 -55q-2 -3 -9 -10q-19 -20 -36 -42q-161 -8 -169 -8 q-7 0 -18.5 1t-43.5 2t-84 2q-10 0 -10 12q0 14 10 30q39 63 107 126t100 125q17 34 17 58q0 26 -17 45t-43 19q-20 0 -47 -10q-22 -7 -34 -19.5t-28 -34t-37 -39.5q-18 30 -18 43q0 5 15 28q33 49 52 64.5t59 28.5q69 23 101 23z" />
<glyph unicode="3" d="M244 -152q32 0 70.5 47t38.5 136q0 33 -20 53t-55 20q-49 0 -74 -17.5t-60 -20.5q-16 11 -16 32q0 20 16 58q32 35 78 78t68.5 66.5t22.5 36.5q0 18 -18 37.5t-43 19.5q-26 0 -43 -11.5t-25 -26.5t-23 -31.5t-35 -24.5q-2 -1 -5 -1q-9 0 -9 19q0 14 3 30.5t12 43t32.5 54 t57.5 49.5q45 29 83 29q42 0 96 -26q28 -27 28 -71q0 -22 -10 -70q-7 -34 -40 -76t-41 -62q6 -12 23 -12q4 0 12.5 0.5t12.5 0.5q40 0 58 -58.5t18 -120.5q0 -56 -25 -116q-18 -46 -38.5 -73t-57.5 -47q-88 -46 -139 -46q-44 0 -75.5 27t-31.5 66q0 37 27 64q17 2 34 2 q7 0 15.5 -1.5t19.5 -1.5q2 0 9 0.5t12 0.5q8 -6 8 -25v-1v-2q0 -28 29 -28z" />
<glyph unicode="4" d="M240 114v135q-18 37 -39 37q-1 0 -3 -0.5t-3 -0.5l-90 -144q-5 -20 -5 -23q0 -8 5 -13l64 2q-8 0 -8 1q16 2 79 6zM557 102q0 -32 -33.5 -62.5t-61.5 -30.5q-8 0 -40 8t-66 8q-3 0 -9.5 -0.5t-10.5 -0.5q0 -69 1.5 -109.5t1.5 -45.5q0 -32 -2 -64q-24 -27 -53 -27 q-23 0 -44 18q-1 31 -1 75q0 19 0.5 45t0.5 37q0 28 -3 77q-13 1 -34 1q-30 0 -61 -6.5t-47 -6.5q-25 0 -77 12q-15 4 -15 22q0 12 6 32l83 137q38 64 46 79.5t33.5 51.5t46.5 62l85 102q8 4 18 4q17 0 27 -13q9 -87 9 -127q0 -11 -18 -266q9 -1 23 -1q26 0 56 10t79 10 q11 0 51 -2q9 -13 9 -29z" />
<glyph unicode="5" d="M34 -155q0 22 19.5 43t47.5 21q18 0 29 -9t15 -20.5t12.5 -23t21.5 -14.5q25 -5 43 -5q50 0 86 32t50 69t14 70q0 54 -37 98q-17 20 -46 20q-14 0 -50 -8q-25 -6 -58 -40.5t-62 -37.5h-6q-19 0 -24 12l25 113q32 148 47 189t71 135l27 45q3 1 9 1q17 0 37.5 -30.5 t37.5 -36.5q23 -7 28 -7q35 0 35 46v18q0 44 29 44q22 0 62 -29.5t40 -78.5q0 -23 -10.5 -52.5t-20.5 -46.5l-11 -18q-63 5 -93 5q-11 0 -21.5 -1t-15.5 -1q-16 0 -56 5q-6 6 -6 16q0 6 3.5 18.5t3.5 17.5q0 16 -16 16q-2 0 -12 -1t-18 -1h-5q-7 -31 -12.5 -59t-8.5 -39 l-4 -23q-3 -11 -4 -15l-2 -8q-2 -6 -4.5 -12.5t-5.5 -17.5l-10 -32l-15 -50q68 11 78 12q15 1 43 4.5t42 3.5q30 0 69.5 -12.5t55.5 -43.5q20 -41 20 -83q0 -53 -38 -127q-32 -63 -76 -98t-116 -64q-35 -14 -67 -14q-21 0 -53 8q-43 11 -67.5 24t-40.5 42q-9 15 -9 31z" />
<glyph unicode="6" d="M411 241q0 62 -12 95t-43 52q-33 20 -70 20q-38 0 -80 -22q-71 -38 -71 -148q0 -66 47 -120q31 -36 106 -36q40 0 68 25q55 49 55 134zM346 19q-57 -11 -82 -11q-44 0 -86 19q-57 24 -89.5 53t-44.5 78q-25 98 -25 160q0 56 19 123q19 65 47 108.5t81 89.5 q67 56 119.5 81.5t126.5 26.5q18 0 26 -1t19 -7.5t21 -20.5q-38 -29 -80 -48t-66 -40l-29 -24l-29 -24l-21 -22q-16 -15 -23 -26l-18 -30q-11 -18 -20 -40q-3 -6 -3 -11q0 -16 15 -23q23 8 44 17l30 13q8 3 18 5.5t20 2.5q111 0 166 -75q52 -74 52 -141q0 -46 -24 -98 q-14 -30 -31.5 -50t-49.5 -44q-40 -31 -83 -41z" />
<glyph unicode="7" d="M90 -18q52 156 90 230t52 110q12 30 36 73t36 78.5t12 82.5q-15 42 -72 42q-23 0 -39 -5.5t-25 -13.5l-32 -27q-23 -20 -48 -38q-44 0 -54 30q21 102 32.5 126.5t63.5 74.5q18 10 33 10q20 0 39 -14q4 -3 4 -13.5t8 -15.5h306l-98 -202l-68 -138q-19 -40 -54 -121 l-88 -215q-4 -4 -13.5 -17t-18 -20t-18.5 -8q-18 -2 -28.5 -3.5t-12.5 -2.5t-6 -2t-11 -1h-26z" />
<glyph unicode="8" d="M319 98q26 15 38 60q8 27 8 45q0 21 -10 41q-14 29 -48 41t-58 12q-19 0 -44 -11q-28 -14 -38.5 -42.5t-10.5 -51.5q0 -25 15 -55t46 -43q28 -11 50 -11q25 0 52 15zM254 636q-52 0 -76 -33t-24 -65q0 -23 13.5 -52.5t43.5 -41.5q29 -12 53 -12q30 0 61 18 q18 10 27.5 38.5t9.5 45.5q0 50 -36 76t-72 26zM193 358q-34 21 -47 30.5t-27 26.5t-24 41q-21 57 -21 97q0 50 29 101q15 26 37 38t59 22q45 12 80 12q47 0 104 -24q33 -14 53.5 -31.5t34.5 -46.5q15 -31 15 -63q0 -14 -2 -26.5t-4.5 -22t-7 -19t-7.5 -15t-9 -12t-8.5 -9 t-8.5 -7.5l-6 -6q-14 -14 -37 -28l-38 -24q-14 -8 -14 -13q0 -4 3.5 -8t10.5 -9.5t9 -7.5q14 -15 52 -31.5t51 -40.5q18 -35 18 -69q0 -32 -18 -93q-10 -36 -20.5 -56t-34.5 -34q-54 -32 -112 -32q-47 0 -110 22q-62 22 -86 76q-15 34 -15 69q0 38 21 93q9 24 41 51.5 t39 48.5z" />
<glyph unicode="9" d="M396 132q18 44 18 81q0 48 -30 111q-17 36 -52 49q-34 13 -60 13q-27 0 -54 -13q-30 -15 -46 -55q-21 -58 -21 -100q0 -41 19 -86q16 -36 47.5 -49.5t59.5 -13.5q29 0 65 15q41 17 54 48zM362 32q-4 0 -50 -13t-77 -13q-26 0 -66 16.5t-65 55.5q-51 76 -51 149q0 31 9 69 q13 57 40.5 94t77.5 60q57 26 106 26q60 0 124 -37q35 -20 50 -48t30 -79q17 -61 17 -116q0 -52 -23 -160q-14 -67 -32.5 -110.5t-55.5 -93.5q-39 -50 -74 -79t-90 -53q-29 -13 -47.5 -15.5t-66.5 -2.5q-19 10 -19 32q0 7 1 10q40 46 89.5 74.5t72.5 51.5l20 20q16 16 19 20 l15 16q12 14 14.5 19.5t10.5 19t11 25.5l7 27q4 16 7 35h-4z" />
<glyph unicode=":" horiz-adv-x="385" d="M121 15q-18 5 -27 27q-12 28 -12 52q0 26 12 47q23 45 63 45t63 -45q15 -27 15 -54q0 -25 -15 -45q-25 -32 -65 -32q-14 0 -34 5zM121 325q-18 5 -27 27q-12 28 -12 52q0 26 12 47q23 45 63 45t63 -45q15 -27 15 -54q0 -25 -15 -45q-25 -32 -65 -32q-14 0 -34 5z" />
<glyph unicode=";" horiz-adv-x="385" d="M72.7559 172.52q0 43.2959 26.2734 64.0947q26.2725 20.7988 55.5771 20.7988q21.2197 0 54.5664 -11.8848q35.3682 -11.8857 51.5361 -45.8428q12.125 -23.7705 12.125 -47.541q0 -20.374 -6.0625 -44.1445q-9.09473 -40.749 -22.7363 -67.4902 q-13.6416 -26.7422 -43.957 -54.7568q-22.2305 -19.5254 -37.3877 -26.3174q-15.1572 -6.79102 -41.4307 -6.79102q-55.5771 0 -55.5771 31.4102q0 11.8857 13.6416 20.7998q13.6416 8.91309 30.8203 14.0068q17.1777 5.09375 30.8203 18.252 q13.6416 13.1592 13.6416 33.5332q0 17.8281 -11.6211 28.0156q-11.6201 10.1865 -25.7676 12.7334t-26.7783 8.91406t-14.6523 18.252q-3.03125 17.8281 -3.03125 33.958zM133 334q-18 5 -27 27q-12 28 -12 52q0 26 12 47q23 45 63 45t63 -45q15 -27 15 -54q0 -25 -15 -45 q-25 -32 -65 -32q-14 0 -34 5z" />
<glyph unicode="&#x3c;" horiz-adv-x="372" d="M336 404q0 -9 -7 -20.5t-20 -11.5q-4 0 -10.5 0.5t-9.5 0.5q-8 0 -11 -2l-44 -27l-60 -38q-28 -18 -58 -43q18 -27 45.5 -48t69.5 -46t70 -47q13 -23 13 -26q0 -7 -7 -13q-39 -14 -109 -14q-29 0 -55.5 24t-39.5 53q-1 4 -44 48t-43 62q0 8 7 12q29 35 103 92 q3 2 28.5 28t51 36.5t67.5 10.5q24 0 43.5 -8.5t19.5 -22.5z" />
<glyph unicode="=" horiz-adv-x="346" d="M33 279q-9 12 -9 27q0 18 15 36q14 16 31 20q16 5 39 5q3 0 5 -1h8q21 0 34 3q62 10 65 10q54 0 76 -21.5t22 -48.5q0 -16 -10 -30q-8 -12 -16.5 -19t-23.5 -10.5t-21.5 -4.5t-29 -1.5t-26.5 -0.5q-3 0 -29.5 -1.5t-39.5 -1.5q-62 0 -90 39zM33 87q-9 12 -9 27 q0 18 15 36q14 16 31 20q16 5 39 5q3 0 5 -1h8q21 0 34 3q62 10 65 10q54 0 76 -21.5t22 -48.5q0 -16 -10 -30q-8 -12 -16.5 -19t-23.5 -10.5t-21.5 -4.5t-29 -1.5t-26.5 -0.5q-3 0 -29.5 -1.5t-39.5 -1.5q-62 0 -90 39z" />
<glyph unicode="&#x3e;" horiz-adv-x="372" d="M26 101q0 9 7 20.5t20 11.5q4 0 10.5 -0.5t9.5 -0.5q8 0 11 2l44 27l60 38q28 18 58 43q-18 27 -45.5 48t-69.5 46t-70 47q-13 23 -13 26q0 7 7 13q39 14 109 14q29 0 55.5 -24t39.5 -53q1 -4 44 -48t43 -62q0 -8 -7 -12q-29 -35 -103 -92q-3 -2 -28.5 -28t-51 -36.5 t-67.5 -10.5q-24 0 -43.5 8.5t-19.5 22.5z" />
<glyph unicode="?" horiz-adv-x="474" d="M217 228q-8 -7 -20 -7q-23 0 -43 25q-23 92 -23 150q0 30 5 93q46 15 75 15q8 0 20.5 -1t18.5 -1q19 0 39 5q14 14 14 33q0 9 -5 21q-9 20 -26 29.5t-42 17t-40 16.5q-10 6 -27.5 11.5t-29 12.5t-15.5 21q-4 15 -4 30q0 33 31 51q24 2 31 2q28 0 47.5 -8t56.5 -30 q4 -7 19 -29.5t19 -29.5l12 -23q8 -17 11.5 -31t5.5 -32l5 -31q4 -25 4 -37q0 -38 -31 -69q-15 -15 -53.5 -25.5t-54.5 -34.5v-17q0 -15 -1.5 -41t-1.5 -41q0 -28 3 -45zM175 178q37 0 57 -26.5t20 -52.5q0 -66 -74 -66q-26 0 -45 18q-38 33 -38 65q0 33 25 47.5t55 14.5z " />
<glyph unicode="@" horiz-adv-x="527" d="M340 308q0 17 -7 26.5t-17 9.5q-23 0 -55.5 -22t-32.5 -42q0 -43 24 -53q6 -1 8.5 -0.5t8.5 4t9 4.5q7 2 17.5 6t27.5 22.5t17 42.5v2zM204 395q-17 0 -26.5 11t-9.5 27q0 47 32 74q22 18 45 23.5t64 5.5h2q12 0 24 -2.5t30.5 -19t23.5 -45.5q4 -20 4 -83.5t3 -111 t14 -47.5q16 0 35 41t19 81q0 22 -7.5 54.5t-8.5 40.5q-2 19 -32 69.5t-49 62.5q-14 9 -53 9q-101 0 -146 -54q-19 -23 -49.5 -105.5t-30.5 -151.5q0 -87 54 -119q58 -35 148 -35q35 0 81 5.5t51 5.5q9 0 9 -3q0 -18 -65.5 -42.5t-129.5 -24.5q-45 0 -66.5 2t-48.5 15.5 t-50 41.5q-54 67 -54 144q0 20 11 108q14 107 39 156q63 123 254 123q78 0 97 -11q35 -22 62.5 -100t27.5 -165q0 -120 -56 -193q-8 -10 -22 -10q-3 0 -9.5 0.5t-10.5 0.5h-4q-4 0 -10 -0.5t-9 -0.5q-19 0 -30 10.5t-17.5 21t-14.5 10.5q-9 0 -21.5 -12t-32 -23.5 t-47.5 -11.5q-21 0 -35.5 10t-20.5 26t-8 27.5t-2 21.5q0 80 111 123q5 2 26 3.5t30 12.5t9 39q-1 48 -18 60q-5 4 -17 4q-33 0 -47 -19q-5 -7 -6.5 -16t-1.5 -19.5t-1 -13.5q-1 -14 -12.5 -22.5t-26.5 -8.5z" />
<glyph unicode="A" horiz-adv-x="765" d="M398 566q-5 -13 -24.5 -86.5t-49.5 -143.5q31 -17 73 -17q15 0 99 8v8q0 13 -3.5 26.5t-7 23t-11.5 26.5t-12 27q-6 14 -15 47.5t-19.5 52t-29.5 28.5zM745 14q-3 -3 -8.5 -2t-8.5 -1q-51 -11 -200 -11h-84q-25 0 -25 33q0 38 25 67q10 11 18 11q3 0 15.5 -3.5t25.5 -3.5 q16 0 33 4q2 4 4 6t3.5 2.5t2.5 1.5t1.5 4.5t0.5 9.5q0 18 -4 70q0 2 -0.5 5.5t-3.5 12t-8.5 15.5t-17.5 14t-28 9q-20 -2 -54 -2q-12 0 -36 0.5t-37 0.5q-39 0 -83 -4q-11 -9 -18 -18.5t-10 -22.5t-4 -21.5t-1 -28t-1 -28.5q9 -5 18 -5q6 0 16 2.5t14 2.5q9 0 17 -9 q2 -42 2 -54q0 -37 -10 -48q-19 -19 -46 -19q-11 0 -38 5t-43 5h-7q-15 0 -40 -1t-40 -2q-3 -1 -9.5 -4t-11.5 -3q-11 0 -30 14q-3 5 -9.5 12t-10.5 13t-4 14q3 47 55 78q10 5 19 5q6 0 18.5 -2.5t17.5 -2.5q11 0 17 5q8 12 20.5 46.5t21.5 63.5l9 29l41 111q24 66 35.5 95 t36 82.5t59.5 121.5q52 27 75 27q17 0 37 -11q16 -24 27 -46t15.5 -35t12.5 -39l13 -42q28 -79 58.5 -210t52.5 -191q12 -17 47.5 -28.5t46.5 -31.5q12 -21 12 -38q0 -16 -12 -30z" />
<glyph unicode="B" horiz-adv-x="631" d="M361 77q54 6 84 47t30 93q0 45 -23 78.5t-65 38.5l-35 6q-28 4 -40 4q-35 0 -36 -27q-9 -122 -9 -145v-27q1 -30 25.5 -49.5t56.5 -19.5q8 0 12 1zM301 666q-8 -91 -8 -128q0 -38 8 -108q16 -13 32 -13q11 0 23 4.5t28.5 13.5t25.5 13q44 20 56 48q14 28 14 56t-14 55 q-11 23 -28 35.5t-45 23.5q-27 9 -44 9q-20 0 -48 -9zM48 666q-10 11 -10 27q0 24 19 41q69 18 125 18q39 0 114 -10q20 -2 59 -5.5t58.5 -6.5t48 -10t52 -20.5t46.5 -33.5t31.5 -43.5t11.5 -59.5q1 -7 1 -21q0 -45 -27 -81q-10 -14 -16.5 -20.5t-11.5 -12.5t-16.5 -10.5 t-18.5 -7.5t-31 -11t-42 -15q27 -19 55.5 -28.5t47 -18t33.5 -30.5q28 -38 28 -90q0 -11 -2 -41q-4 -37 -7.5 -56.5t-16.5 -44t-36 -41.5q-52 -39 -124 -39q-18 0 -58 3t-62 3q-19 0 -29 -1l-126 -9q-46 0 -113 9q-13 16 -13 35q0 34 30 59q9 4 21 4q13 0 35 -7.5t31 -7.5 q14 0 24 11v18q0 46 -9 84.5t-9 58.5q0 3 0.5 9t0.5 9l26 390q-13 13 -23 13q-5 0 -25 -7t-39 -7q-16 0 -33 4z" />
<glyph unicode="C" horiz-adv-x="691" d="M617 148h3q13 0 13 -18q0 -28 -19 -53q-13 -17 -27.5 -30t-33.5 -21t-32 -13t-39 -7l-38 -4q-10 -1 -43.5 -1.5t-42.5 -0.5h-15q-67 0 -130 34q-58 31 -94 65t-68 89q-43 76 -43 143q0 18 1 27q4 69 25.5 118.5t67.5 112.5q41 55 80 87t100 58q47 21 109 21q6 0 19 -0.5 t20 -0.5q55 -1 102 -20q9 -3 31 -11.5t31 -12.5t24 -13t24.5 -20t16.5 -27q17 -35 17 -68q0 -45 -42 -127q-25 17 -33 53t-18 50q-6 7 -27 36.5t-29 38.5t-28.5 23.5t-43.5 20.5q-30 7 -48 7q-61 0 -123 -50q-58 -45 -84.5 -98.5t-34.5 -131.5q-3 -24 -3 -45q0 -91 63 -168 q36 -45 77 -66t102 -28q16 -2 24 -2q40 0 102 24.5t87 28.5z" />
<glyph unicode="D" horiz-adv-x="750" d="M259 669q-11 -237 -12 -346.5t-5 -211.5v-1q0 -5 1.5 -9.5t6.5 -7.5l7 -5q3 -2 10 -4t11 -3t12.5 -2t11.5 -2q15 -3 27 -3q28 0 75 20q50 21 79.5 42.5t56.5 59.5q33 46 46.5 86t13.5 95v7q-1 61 -16 104.5t-52 91.5q-29 39 -59.5 59.5t-77.5 34.5q-59 17 -79 17 q-32 0 -57 -22zM56 667h-6q-41 0 -45 21v3q0 26 55 49q21 10 47 10q7 0 22 -1t25 -1q19 0 51 0.5t46 0.5q103 0 193 -24q41 -11 62 -18t48 -21.5t52 -36.5q46 -41 71 -78t40 -93q10 -39 10 -73q0 -39 -19 -115q-17 -65 -33 -102.5t-52 -76.5q-34 -37 -67 -56.5t-87 -37.5 q-55 -18 -122 -18q-11 0 -34 0.5t-37 0.5h-14h-48q-101 0 -214 14q-8 9 -8 29t8 39q14 11 33 11q11 0 33 -4t32 -4q24 0 36 15q4 123 4.5 252t6.5 334q-8 8 -20 8q-9 0 -31 -6q-8 -1 -18 -11t-20 -10z" />
<glyph unicode="E" horiz-adv-x="648" d="M452 644q-38 7 -74 7q-37 0 -88 -9q-3 -1 -9 -1q-3 0 -8 0.5t-7 0.5q-12 0 -19 -8q-1 -46 -1 -111q0 -71 1 -128q76 -14 83 -14q18 0 45 6q18 12 18 42q0 5 -0.5 14t-0.5 13q0 31 18 42q11 7 24 7q20 0 35 -16q0 -53 4 -290q-29 -12 -41 -12q-13 0 -31 21q-2 8 -2 21 q0 16 7 28t7 16q0 3 -3 11q-4 7 -10 11.5t-9.5 6t-15 4.5t-13.5 4q-38 12 -58 12q-12 0 -27 -3q-29 -8 -38 -26q-12 -60 -14.5 -93t-2.5 -103q10 -22 34 -28q56 -14 117 -14q24 0 70 2.5t60 3.5q19 10 28 22.5t12.5 25t14.5 35.5t31 47q7 -8 11.5 -15t7 -11.5t4.5 -12.5 l2 -10v-12v-13q1 -13 1 -36q0 -56 -32 -81h-546q-37 12 -37 31q0 3 0.5 5.5t1.5 4.5l4 4q1 2 4 3.5t4.5 2.5t5.5 2.5t5.5 2.5t6 2t5.5 2q3 1 9 1q8 0 23 -4.5t20 -4.5q10 0 11 10q25 250 25 402q0 74 -3 178q-17 0 -29 -1.5t-16.5 -4t-7.5 -4t-6 -1.5t-12 3q-34 17 -34 40v3 q2 27 21.5 41.5t55.5 26.5h100q64 0 131.5 0.5t79.5 0.5q66 0 167 -18q1 -17 1.5 -34t1 -25.5t0.5 -17.5t0.5 -13.5t1 -8.5t2 -8t3 -7.5t4 -10.5t5.5 -14q2 -8 14.5 -20t12.5 -18v-1l-1 -2q-49 -16 -74 -16q-8 0 -18 1t-28 2.5t-33 2.5q-3 4 -3 6q0 3 10.5 12.5t10.5 23.5 q0 8 -1 12l-7 29q-1 4 -7.5 8t-14.5 15z" />
<glyph unicode="F" horiz-adv-x="648" d="M393 0h-356q-37 12 -37 31q0 3 0.5 5.5t1.5 4.5l4 4q1 2 4 3.5t4.5 2.5t5.5 2.5t5.5 2.5t6 2t5.5 2q3 1 9 1q8 0 23 -4.5t20 -4.5q10 0 11 10q25 250 25 402q0 74 -3 178q-17 0 -29 -1.5t-16.5 -4t-7.5 -4t-6 -1.5t-12 3q-34 17 -34 40v3q2 27 21.5 41.5t55.5 26.5h100 q64 0 131.5 0.5t79.5 0.5q66 0 167 -18q1 -17 1.5 -34t1 -25.5t0.5 -17.5t0.5 -13.5t1 -8.5t2 -8t3 -7.5t4 -10.5t5.5 -14q2 -8 14.5 -20t12.5 -18v-1l-1 -2q-49 -16 -74 -16q-8 0 -18 1t-28 2.5t-33 2.5q-3 4 -3 6q0 3 10.5 12.5t10.5 23.5q0 8 -1 12l-7 29q-1 4 -7.5 8 t-14.5 15q-38 7 -74 7q-37 0 -88 -9q-3 -1 -9 -1q-3 0 -8 0.5t-7 0.5q-12 0 -19 -8q-1 -46 -1 -111q0 -71 1 -128q76 -14 83 -14q18 0 45 6q18 12 18 42q0 5 -0.5 14t-0.5 13q0 31 18 42q11 7 24 7q20 0 35 -16q0 -53 4 -290q-29 -12 -41 -12q-13 0 -31 21q-2 8 -2 21 q0 16 7 28t7 16q0 3 -3 11q-4 7 -10 11.5t-9.5 6t-15 4.5t-13.5 4q-38 12 -58 12q-12 0 -27 -3q-29 -8 -38 -26q-12 -60 -14.5 -93t-2.5 -103q10 -22 34 -28q45 -11 55 -11q2 0 18.5 5t52.5 7q9 5 16 5q11 0 11 -16q0 -10 -4 -24.5t-8 -24.5z" />
<glyph unicode="G" horiz-adv-x="776" d="M703 119q-26 -37 -62 -60.5t-86.5 -35t-90.5 -16t-106 -7.5q-4 0 -10 -0.5t-9 -0.5q-60 0 -126 35q-58 31 -94 65t-68 89q-43 76 -43 143q0 18 1 27q4 69 25.5 118.5t67.5 112.5q41 55 80 87t100 58q15 7 28.5 11t31 6t25 2.5t31.5 0.5h32h19q66 0 114 -11.5t72.5 -25.5 t73.5 -48q15 -47 15 -77q0 -38 -39 -118q-25 17 -32 52.5t-20 49.5q-44 47 -83 70t-95 31q-23 3 -44 3q-68 0 -127 -46q-58 -45 -84.5 -98.5t-34.5 -131.5q-2 -15 -2 -44q0 -92 62 -169q36 -45 77 -65.5t102 -28.5q34 -4 49 -4q71 0 122 44q0 26 0.5 49t1 34t0.5 16 q0 1 -8 46q-4 19 -26 23.5t-48 8t-37 19.5q-10 15 0 25q36 3 123 5.5t167 11.5q9 -9 9 -22q0 -15 -12 -29q-4 -4 -11 -4q-4 0 -11 1.5t-10 1.5q-7 0 -8 -7q-1 -8 -1 -24q0 -24 3.5 -68.5t3.5 -60.5q0 -32 -8 -44z" />
<glyph unicode="H" horiz-adv-x="810" d="M43 694q-9 12 -9 25q0 15 12 26q74 -1 112 -2t47.5 -1.5t15.5 -1.5h11q6 -1 40.5 -2.5t97.5 -3.5q8 -8 8 -21t-8 -22q-11 -11 -27 -11q-9 0 -28 4t-27 4q-16 0 -25 -9q-5 -76 -5 -118q0 -12 0.5 -50.5t0.5 -75.5h350q2 38 2 93v40q0 49 6 89q-10 15 -42.5 17.5 t-42.5 16.5q-9 13 -9 29q0 14 9 22q88 9 119 9q40 0 135 -15q6 -8 6 -15t-6 -19q-8 -16 -37.5 -27t-37.5 -26v-530q5 -12 21.5 -25.5t21.5 -25.5q4 -9 5 -18.5t1 -21t1 -19.5q-120 -11 -128 -11q-4 0 -17 0.5t-43 1t-75 0.5q2 9 3 23.5t3.5 25t10.5 19.5q9 12 30.5 15 t37.5 7.5t17 20.5q2 26 3.5 43.5t2.5 22.5t1.5 8.5t0.5 6.5q0 1 -0.5 17t-1 57.5t-0.5 103.5q-77 5 -85 9q-2 1 -13 1q-36 0 -255 -5q9 -139 9 -156q0 -4 -1 -4q-1 5 -2 5t-1 -20q0 -43 2 -89q12 -18 52 -20.5t50 -22.5q5 -12 5 -20q0 -18 -17 -31q-60 -1 -98.5 -2.5 t-53 -2.5t-21.5 -1q-15 0 -151 15q-16 13 -16 31q0 12 7 20q7 10 22 10q9 0 29 -5.5t29 -5.5q14 0 22 9q-1 35 -1 88q0 70 8 184t11 311q-10 14 -33 14q-4 0 -14 -1t-15 -1q-22 0 -32 14z" />
<glyph unicode="I" horiz-adv-x="389" d="M245 678q12 -184 12 -330v-63q0 -108 3 -191q10 -15 33 -15q7 0 20 1.5t20 1.5q20 0 29 -14q6 -9 6 -19q0 -19 -18 -32q-60 -1 -98.5 -2.5t-53 -2.5t-21.5 -1q-15 0 -151 15q-16 13 -16 31q0 12 7 20q9 12 27 12q11 0 35 -6.5t34 -6.5q13 0 22 9q-4 155 -4 213q0 27 1 67 t2.5 121.5t2.5 181.5q-10 14 -33 14q-4 0 -14 -1t-15 -1q-22 0 -32 14q-9 12 -9 25q0 15 12 26q74 -1 112 -2t47.5 -1.5t15.5 -1.5h11q6 -1 40.5 -2.5t97.5 -3.5q4 -4 4 -15l-7 -35q-9 -15 -28 -15q-10 0 -35 6.5t-38 6.5q-12 0 -21 -4z" />
<glyph unicode="J" horiz-adv-x="379" d="M193 671q-9 14 -38 17t-39 16q-8 11 -8 26q0 7 2 19q43 14 97 14q27 0 57 -3q3 0 9 -0.5t8 -0.5q4 0 11.5 0.5t10.5 0.5q40 0 57 -22q4 -6 4 -13t-4 -16q-8 -17 -36.5 -30.5t-37.5 -31.5q7 -218 7 -370q0 -30 -0.5 -135t-0.5 -196q0 -41 -13 -67q-5 -9 -10 -16.5 t-11 -14.5l-12 -12q-4 -4 -14 -12l-15 -13q-20 -18 -31 -26t-39 -19t-60 -11q-34 0 -51 12q-29 21 -29 49q0 22 18 43q18 22 32 22q11 0 24.5 -18.5t19.5 -21.5q22 -13 32 -13q1 0 3.5 0.5t3.5 0.5q16 4 33.5 23t18.5 52q4 157 4 258q0 44 -1 197z" />
<glyph unicode="K" horiz-adv-x="725" d="M111 657q0 11 -12 11q-6 0 -21.5 -4t-23.5 -4q-12 0 -17 8q-6 10 -6 22q0 31 32 52q29 0 50.5 -0.5t32.5 -0.5t18 -0.5t10 -0.5h6q1 0 11 0.5t43 1t85 0.5q16 -15 16 -38t-16 -38q-7 -7 -17 -7q-9 0 -26.5 7t-25.5 7q-10 0 -17 -7q0 -16 0.5 -39t0.5 -30q0 -46 -3.5 -82 t-5.5 -114q10 -26 24 -26h1q38 53 47 66.5t25 35l22 29.5l38 49l73 94q-4 18 -42.5 21t-42.5 21q-1 3 -1 7q0 17 13.5 27.5t38.5 21.5q29 0 51 0.5t31 1t10 0.5h1q0 -1 -2 -1t-2 -1q0 -3 73 -8q3 -1 12 -5.5t12.5 -6t9 -5.5t7.5 -8.5t2 -10.5v-3q-1 -14 -12.5 -20t-29 -10.5 t-26.5 -12.5l-48 -41q-15 -14 -34 -34.5t-29.5 -34.5l-44.5 -57l-69 -86l63 -56q20 -18 44.5 -44.5t35.5 -41.5l56 -67l85 -104q7 -3 13 -3q8 0 23 5t21 5q10 0 17 -7q20 -20 20 -43q0 -19 -17 -38h-344q-13 13 -13 29t13 29q8 8 18 8q9 0 28 -7t28 -7q10 0 17 6 q15 12 15 34q0 8 -4 26l-56 66l-30 38q-7 9 -26 30l-64 68h-6q-32 0 -54 -43q-6 -55 -6 -91q0 -34 6 -114q8 -9 23 -9q7 0 20.5 2t19.5 2q16 0 23 -12q3 -6 3 -14q0 -21 -21 -34q-70 0 -113 4.5t-160 4.5q-10 10 -10 25t10 26q14 15 36 15q9 0 32 -4t36 -4q11 0 16 1 q-13 216 -20 572z" />
<glyph unicode="L" horiz-adv-x="708" d="M114 731q51 2 84 4t43 3t15 1q4 0 16 -1t50.5 -3t95.5 -4q27 -22 27 -53q0 -18 -10 -32q-9 -13 -27 -13q-4 0 -12.5 1t-13.5 1q-14 0 -24 -6q-25 -18 -32 -43q2 -83 2 -183q0 -35 -0.5 -88.5t-0.5 -87.5q0 -97 2 -179h65q43 0 74.5 7t89.5 33v8q0 24 -6 54.5t-6 46.5 q0 13 3 31q4 21 30 21q8 0 27.5 -2.5t29.5 -2.5t15 1q19 -96 19 -130q0 -22 -10 -115q-36 11 -60 14q-51 -3 -116.5 -7.5t-105 -6.5t-78.5 -2q-98 0 -259 16q-15 16 -15 24t23 47h8q24 0 52.5 -8.5t44.5 -8.5q20 0 38 6v51q0 76 4.5 180t4.5 175q0 61 -1 97 q-11 30 -31.5 47.5t-63.5 38.5q-6 17 -6 33q0 21 15 35z" />
<glyph unicode="M" horiz-adv-x="861" d="M20 683q-1 3 -1 8q0 23 41 43q48 12 80 12q37 0 110 -20q46 -113 71 -190.5t46 -130.5t80 -166l261 506q28 16 47 16q18 0 73 -19q18 -21 18 -40q0 -14 -13 -23v-1q0 -13 -18 -13q-4 0 -13.5 1t-14.5 1q-25 0 -25 -19q-10 -343 -10 -394q0 -39 2 -119q6 -8 25.5 -10 t25.5 -11q8 -12 8 -27q0 -8 -4 -27.5t-4 -31.5q-51 -7 -85 -7q-13 0 -44.5 2.5t-66.5 4.5v9q0 7 -1 19t-1 17q0 18 10 29q9 10 28 10h20q18 0 26 10q9 73 9 142q0 27 -3 117t-3 171v57q-68 -149 -124 -306.5t-98 -253.5q-2 -3 -5 -8.5t-5 -8.5t-6 -5.5t-9 -2.5h-5 q-21 0 -47 34q-38 98 -71.5 199.5t-65 179t-96.5 203.5q15 -152 15 -254q0 -29 -1.5 -89.5t-1.5 -102.5v-49q8 -15 38.5 -24.5t37.5 -26.5q3 -8 3 -15q0 -8 -5 -22.5t-6 -22.5q-36 -1 -76.5 -5t-80.5 -4q-6 0 -22 0.5t-26 0.5q-1 8 -7 23t-6 22t4 14q6 10 22 10q3 0 9 -0.5 t9 -0.5q14 0 20 8q-4 105 -4 184q0 38 2 150t2 221q-8 11 -35.5 11.5t-32.5 14.5z" />
<glyph unicode="N" horiz-adv-x="793" d="M649 688q-18 0 -41 -6t-30 -6q-14 0 -26 12q-6 6 -6 14q0 5 4.5 17t4.5 18q0 5 -3 11q62 4 88 4q42 0 137 -6q12 0 12 -14q0 -25 -21 -46q-10 -9 -20 -9q-3 0 -16 1.5t-24 1.5q-5 -99 -5 -187q0 -49 2.5 -121.5t2.5 -113.5q0 -77 -5 -161q-1 -1 -6.5 -11t-9.5 -15 t-11.5 -10.5t-15.5 -6.5h-4q-22 0 -47 34l-407 495q9 -108 9 -170q0 -49 -6 -130t-6 -141v-28q4 -12 22 -12h10q14 0 19 -8q4 -7 4 -15q0 -7 -5.5 -22t-6.5 -23q-35 -1 -87 -4.5t-88 -3.5h-30q-1 8 -7 23t-6 22t4 14q11 15 38 15q9 0 26 -2t24 -2q12 0 18 6q-4 105 -4 184 q0 38 2 150t2 221q-5 8 -24 8q-7 0 -23.5 -1.5t-24.5 -1.5q-35 0 -42 21q-2 6 -2 9q0 23 42 42q48 12 80 12q37 0 110 -20l98 -116l75 -90l57 -70l68 -88l83 -112z" />
<glyph unicode="O" horiz-adv-x="765" d="M205 376q0 -6 -1.5 -30t-1.5 -36q0 -64 28 -116q23 -40 50 -62.5t70 -36.5q40 -14 72 -14q38 0 79 22q44 25 66.5 58.5t46.5 95.5q32 79 32 144q0 31 -6 69q-9 54 -25 88.5t-52 65.5q-62 54 -122 54q-33 0 -63.5 -11.5t-49.5 -24.5t-38.5 -36t-26.5 -33t-18 -29 q-17 -27 -25.5 -56t-10.5 -48.5t-4 -63.5zM697 610q55 -78 55 -173q0 -53 -17 -140q-6 -31 -19 -60.5t-24 -46.5t-34 -48l-32 -47q-69 -104 -207 -104q-89 0 -154 33q-37 19 -61.5 33.5t-54 37t-48 45t-33.5 53.5t-21 67q-10 68 -10 113q0 117 71 211q63 83 138.5 121 t179.5 38h4q88 0 153 -31.5t114 -101.5z" />
<glyph unicode="P" horiz-adv-x="631" d="M236 662q-8 -91 -8 -128q0 -38 8 -107q14 -13 33 -13q11 0 23 4.5t29 13.5t24 12q44 19 57 48q14 31 14 56t-14 55q-11 23 -28.5 36t-45.5 23q-30 10 -43 10q-16 0 -49 -10zM326 0q-40 0 -98 -4t-86 -4q-49 0 -108 8q-13 16 -13 35q0 34 30 59q9 4 18 4q10 0 19 -7.5 t13 -7.5q6 0 17 11l2 179q5 83 5 235l-1 155q-5 -5 -28 -5q-25 0 -65 8q-10 11 -10 27q0 24 19 41q50 1 120.5 4t118.5 4h26q70 0 120.5 -16.5t97.5 -59.5q38 -36 43 -103q0 -3 0.5 -9t0.5 -9q0 -43 -27 -84q-28 -44 -59.5 -69t-82.5 -45q-34 -14 -78 -14q-8 0 -26 0.5 t-28 0.5q-20 0 -30 -1q1 -117 8 -223q14 -5 37 -6t38.5 -6t24.5 -21q7 -13 7 -28q0 -29 -25 -49z" />
<glyph unicode="Q" horiz-adv-x="765" d="M129 425q-1 -15 -1 -43q0 -99 47 -178q24 -40 50.5 -63t67.5 -37q36 -12 67 -12q38 0 76 21q23 13 39 28t29.5 38.5t19.5 37.5l19 49q31 84 31 142q0 26 -7 72q-8 52 -23 86t-49 67q-36 36 -67.5 53.5t-72.5 17.5q-2 0 -6.5 -0.5t-7.5 -0.5q-54 -5 -90 -31.5t-74 -78.5 q-28 -38 -37 -74.5t-11 -93.5zM503 51q-3 -1 -3 -4q0 -5 12 -13.5t34 -18.5l44 -19l52 -21l44 -18l95 -43l91 -42q33 -15 85 -28t107 -15h1q22 0 67 25t53 25q6 0 6 -8q0 -5 -1 -8q-4 -15 -4 -26q0 -5 1 -11t1 -8q0 -7 -7 -14q-12 -14 -27.5 -22t-27.5 -10t-35.5 -4 t-35.5 -4q-33 -6 -57 -6q-22 0 -54 6q-46 8 -90.5 22t-70.5 26l-79 35q-52 24 -81 36q-51 23 -121 60l-119 63q-49 27 -64 31q-67 18 -99 36q-44 25 -72 44.5t-59.5 48t-49.5 64.5t-24 79q-9 59 -9 99q0 46 13.5 83t45.5 83q62 88 133.5 132.5t170.5 46.5h7q153 0 245 -134 q53 -77 53 -171q0 -44 -17 -142q-6 -31 -18 -60t-22.5 -46t-31.5 -48l-31 -48q-23 -35 -51 -53z" />
<glyph unicode="R" horiz-adv-x="759" d="M290 668q-8 -90 -8 -131q0 -43 8 -112q15 -14 36 -14q8 0 18 2.5t17 5.5l19 9q13 5 19 8q23 9 36 19t21 28q16 32 16 64q0 31 -16 63q-19 39 -74 58q-30 10 -43 10q-18 0 -49 -10zM469 372l-1 -1q0 -5 40.5 -46.5t110 -122t123.5 -162.5q-39 -29 -76 -29q-31 0 -86 20 q-35 43 -92 125l-96 134q-39 52 -51 52q-6 0 -20 0.5t-21 0.5q-11 0 -35 -2q1 -67 8 -222q14 -5 37.5 -6t39.5 -6.5t24 -21.5q6 -11 6 -20q0 -19 -24 -39q-21 -2 -53 -5.5t-56.5 -5.5t-48.5 -2q-53 0 -134 13q-13 14 -13 30q0 21 30 46q9 4 18 4t18 -7.5t13 -7.5q7 0 17 11 l3 180q5 88 5 247l-1 142q-5 -5 -29 -5t-64 8q-11 13 -11 28q0 23 19 40q44 1 115 5t124 4q91 0 149 -14t112 -63q37 -33 43 -102q0 -3 0.5 -9t0.5 -9q0 -44 -27 -85q-45 -65 -117 -97z" />
<glyph unicode="S" horiz-adv-x="460" d="M8 252q10 11 23 11q9 0 29 -10q26 -15 37.5 -46.5t22 -64.5t34.5 -51q36 -27 84 -27q18 0 27 1q23 3 32 4.5t23 9t21 21.5q18 30 18 64q0 47 -35 98q-18 26 -43 39t-61 23.5t-58 22.5q-14 8 -37.5 16t-39.5 17t-27 27q-39 61 -39 125q0 47 22 105q12 33 32.5 52.5 t54.5 32.5q35 14 68 14q22 0 111 -19q9 -2 27.5 -4.5t27 -4.5t20.5 -9t19 -19q0 -66 -2.5 -91.5t-14.5 -87.5q-10 -2 -13 -2q-20 0 -31.5 22t-16 49.5t-17 57.5t-33.5 43q-37 23 -64 23q-21 0 -38 -14q-49 -40 -49 -106q0 -46 23 -90q10 -20 26.5 -29.5t43 -16.5t41.5 -14 q20 -10 52 -18t55 -19t38 -34q37 -55 37 -117q0 -51 -26 -119q-15 -40 -38.5 -64t-63.5 -41q-37 -16 -78 -16q-33 0 -101 16l-17 5q-7 2 -13 3.5t-12.5 5t-10.5 5t-12.5 7.5t-13 8.5t-18.5 11.5l-23 16q-6 57 -6 85q0 14 1.5 43t1.5 50z" />
<glyph unicode="T" horiz-adv-x="853" d="M216 28q-16 16 -16 36q0 13 8 24q15 21 45 21q9 0 28.5 -2.5t30.5 -2.5q10 0 15 1q0 9 -0.5 26.5t-0.5 25.5q0 96 12 224t12 196q0 41 -3 91q-18 1 -57 5.5t-73 4.5q-5 0 -15.5 -0.5t-16.5 -0.5q-34 -20 -41.5 -47t-17.5 -72.5t-44 -93.5q-6 -5 -14 -5q-23 0 -43 62 q11 49 16 77.5t5 35t4.5 25t16.5 58.5q7 7 14.5 11t12.5 5t15.5 2t15.5 2q36 6 81 6q36 0 108 -7.5t118 -7.5q44 0 110.5 9t99.5 9q36 0 80 -9q21 -4 35 -17l23 -24q2 -2 7.5 -13t6 -20t14 -45t34.5 -86q-5 -19 -18.5 -31.5t-31.5 -12.5q-7 0 -10 1q-33 46 -48.5 92t-27 69 t-43.5 37q-76 -18 -188 -25q0 -112 8 -297.5t9 -267.5q0 -12 15 -12q4 0 15.5 1.5t17.5 1.5q15 0 20 -8q12 -16 12 -37q0 -26 -20 -43q-74 0 -110.5 1t-94 7.5t-131.5 19.5z" />
<glyph unicode="U" horiz-adv-x="802" d="M122 114q-8 77 -8 169q0 75 7 196.5t7 164.5v19q-3 -2 -17.5 -12.5t-25.5 -13.5q-29 -9 -38 -9q-12 0 -21 9q-10 10 -10 25t10 35q11 23 42 34q50 2 88.5 4t57 3.5t27.5 1.5q7 0 134 -18q26 -21 26 -46q0 -11 -8 -22q-9 -10 -22 -10t-42 14t-42 14q-11 0 -22 -9 q-2 -64 -7.5 -145.5t-5.5 -115.5q0 -67 18 -192q22 -52 49.5 -82t73.5 -37q17 -3 31 -3q103 0 182 108q15 141 15 202v68q0 71 5 191q-8 10 -24 10q-8 0 -24 -3t-23 -3q-17 0 -23 13q-3 8 -3 14q0 28 37 49q28 0 50 0.5t32 1t14 0.5q7 0 12 -0.5t26.5 -1.5t53.5 -3 q30 -21 30 -44q0 -8 -5 -16t-15 -8q-5 0 -17.5 3t-18.5 3q-10 0 -15 -6q-5 -79 -5 -155q0 -27 1 -77.5t1 -78.5q0 -111 -11 -244q-17 -34 -43 -52t-70 -33q-108 -40 -190 -40q-68 0 -146 25q-27 9 -46.5 25t-41.5 40t-40 38z" />
<glyph unicode="V" horiz-adv-x="682" d="M265 40l-53 220q-15 62 -44.5 163t-73.5 237q-5 14 -31 19t-32 18q-4 10 -4 16q0 16 13 27q125 15 134 15q18 0 122 -7q17 -13 8 -26q-7 -12 -28 -12q-12 0 -37.5 5.5t-33.5 5.5q-13 0 -13 -10q0 -4 1 -6q28 -104 70 -201.5t84 -247.5q5 -15 23 -15q8 0 11 6 q78 184 177 444q1 2 1 6q0 11 -23 11q-4 0 -14.5 -0.5t-15.5 -0.5q-34 0 -42 15q-3 6 -3 13q0 13 11 22q92 -2 179 -9q4 -5 4 -12q0 -11 -17 -29t-21 -27q-50 -110 -122.5 -298.5t-144.5 -341.5q-11 -24 -46 -24q-34 0 -39 24z" />
<glyph unicode="W" horiz-adv-x="1041" d="M603 620q52 -151 111 -364q5 -15 23 -15q8 0 11 6l50 119l36 89l24 61q7 16 30 78l36 97q1 3 1 7q0 10 -23 10q-4 0 -14 -0.5t-15 -0.5q-34 0 -42 15q-3 6 -3 13q0 13 11 22q92 -2 179 -9q4 -5 4 -12q0 -11 -17 -29t-21 -27q-52 -114 -124.5 -302t-142.5 -338 q-6 -12 -24 -12t-21 12q-18 75 -39 150t-53 179.5t-37 122.5q-78 -205 -193 -452q-6 -12 -22 -12t-19 12l-53 220q-15 62 -44.5 163t-73.5 237q-6 20 -39 20h-26q-32 0 -42 17q-4 7 -4 16q0 16 13 27q125 15 134 15q18 0 122 -7q17 -13 8 -26q-7 -12 -28 -12 q-12 0 -37.5 5.5t-33.5 5.5q-13 0 -13 -10q0 -4 1 -6q28 -104 70 -201.5t84 -247.5q5 -15 23 -15q8 0 11 6q66 156 120 296l-40 117q-8 10 -32.5 16.5t-30.5 20.5q-4 10 -4 16q0 16 13 27q12 0 30.5 -0.5t25.5 -0.5q35 0 69.5 1.5t49.5 1.5q43 0 118 -5q17 -13 8 -26 q-4 -6 -22 -15.5t-26 -9.5q-16 -2 -30.5 -18.5t-20.5 -31.5z" />
<glyph unicode="X" horiz-adv-x="793" d="M276 100q4 -7 14 -7q3 0 10 1t11 1q11 0 13 -7q2 -6 2 -9q0 -11 -19.5 -27t-24.5 -24q-38 0 -79 -3t-58 -3q-37 0 -77 6q-6 7 -17.5 15.5t-18 16.5t-6.5 20q0 11 7 19.5t14.5 12.5t20.5 10q6 3 13 3q9 0 24.5 -5.5t22.5 -5.5q10 0 17 8l81 97l34 39l36 34q26 24 62 61 q10 10 10 23q0 12 -10 36l-61 74q-14 17 -20.5 26t-7 12t-25.5 38l-72 96q-8 4 -20 4q-11 0 -36 -5.5t-38 -5.5q-21 0 -35 9q-27 16 -27 35q0 5 1 8q2 7 6 12.5t11 9t12 5t16 4t15 3.5q138 8 157 8q66 0 144 -17q11 -9 11 -22q0 -7 -5 -15q-7 -8 -18 -8q-9 0 -28.5 6.5 t-27.5 6.5q-12 0 -17 -10q31 -55 78.5 -110.5t69.5 -86.5q48 52 88.5 101.5t82.5 95.5q-3 11 -26 13t-26 12q-1 2 -1 7q0 17 18 27q42 0 72 2.5t31 2.5q12 0 85 -25q7 -8 7 -20q0 -18 -15 -31q-5 -4 -12 -4q-4 0 -14 3t-16 3q-7 0 -10 -2q-61 -65 -86 -94.5t-55 -69.5 l-63 -80l61 -106l56 -96q23 -39 59 -89q22 -7 42 -7q4 0 11 0.5t10 0.5q23 0 37 -16q14 -15 14 -38q0 -8 -2.5 -27t-2.5 -29q-112 0 -158.5 4t-121.5 4q0 11 -3 27t-3 23q0 9 3 19q2 5 15.5 8t13.5 15v5l-26 50l-22 42q-6 12 -18 31.5t-28 41.5q-6 9 -22 9q-14 0 -21 -9 q-25 -33 -33 -44.5t-10 -15.5t-18 -27l-44 -67q-1 -4 -8.5 -14.5t-7.5 -17.5q0 -3 2 -7z" />
<glyph unicode="Y" horiz-adv-x="759" d="M191 14q-8 10 -8 20q0 17 16 31q9 8 22 8q8 0 25 -4t25 -4q14 0 22 9q9 94 9 213q-37 77 -106.5 175t-101.5 152q-6 3 -12 3t-18.5 -4t-17.5 -4t-12 5q-20 18 -20 44q0 18 12 33q103 8 122 8q6 0 21.5 -1t34.5 -1q26 0 106 3q21 -16 21 -36q0 -8 -4 -15q-6 -11 -22 -11 q-7 0 -21 2t-20 2q-16 0 -22 -11q25 -67 66 -154t62 -153l179 290q-12 5 -32.5 7t-34 7.5t-18.5 20.5q-2 4 -2 12q0 21 27 39l48 4q21 1 29 2t14.5 1.5t10.5 0.5q6 0 15.5 -0.5t42 -3t71.5 -4.5q15 -13 15 -31q0 -12 -7 -20q-10 -15 -31 -15q-8 0 -24.5 2.5t-25.5 2.5 q-18 0 -30 -8q-19 -33 -49 -91l-48 -89q-18 -31 -46.5 -76t-58.5 -85q-2 -26 -5 -52l-4 -42q-1 -15 -1 -31q0 -31 7 -97q1 -11 13 -11q6 0 22.5 4.5t24.5 4.5q10 0 17 -6q14 -14 14 -28q0 -7 -5 -15q-131 -13 -158 -13q-29 0 -149 10z" />
<glyph unicode="Z" horiz-adv-x="768" d="M105 15q-16 10 -16 33q0 6 1 18t1 19q0 10 -1 15l131 178l81 112q13 18 55.5 69.5t68.5 80.5l106 117q4 11 4 21q0 9 -4 13h-282q-32 -10 -68 -51q-18 -20 -28 -38.5t-22.5 -46.5t-26.5 -52q-22 -10 -40 -10q-25 0 -37 19l12 46l8 36l7.5 25.5t10.5 28.5l15 31l24 46 q137 0 208.5 -0.5t80.5 -1.5t15.5 -2t14 -2t76.5 -1.5t203 -0.5q2 -4 2 -6q0 -6 -9 -16t-10 -12q-136 -165 -196 -245l-225 -310q-7 -21 -7 -26q0 -10 7 -17h307q32 13 51 32.5t43 56.5q13 21 18 53t24 72q4 2 12 2q19 0 31 -19q0 -51 -5 -77.5t-21 -67.5l-9 -27 l-10.5 -26.5t-10 -21t-16 -21t-22.5 -15.5q-121 0 -219.5 6.5t-232.5 6.5q-16 -2 -41.5 -16.5t-37.5 -14.5q-11 0 -21 7z" />
<glyph unicode="[" horiz-adv-x="262" d="M42 433q0 5 1 104t1 184q11 4 18 8l9 4l2 2h1q1 -1 3.5 -2t7 -2.5t13 -3t20.5 -2.5h5q10 0 27.5 6.5t25.5 6.5t16 -5q12 -8 12 -19q0 -5 -3 -11q-6 -12 -30.5 -14.5t-32.5 -12.5q-24 -31 -24 -75q0 -10 1.5 -32.5t1.5 -36.5q0 -10 -2 -36q-4 -38 -7 -139.5t-8 -145.5 q-4 -48 -4 -60q0 -46 13 -66t53 -51q5 -4 14 -4q4 0 14 2t15 2q9 0 14 -6q5 -5 5 -9t-5 -9q-14 -15 -37 -15q-9 0 -29 3t-24 3h-5q-9 0 -31.5 -3t-32.5 -3q-21 0 -21 12q0 7 7 18q1 27 1 78q0 46 -2.5 152.5t-2.5 177.5z" />
<glyph unicode="\" horiz-adv-x="793" d="M772 79q0 -11 -6.5 -19t-18 -16.5t-17.5 -15.5q-40 -6 -77 -6q-17 0 -58 3t-79 3q-4 6 -24 22.5t-20 28.5q0 16 15 16q4 0 11 -1t10 -1q16 0 16 14q0 7 -7.5 17.5t-8.5 14.5q-53 79 -122 164.5t-83 104.5q-31 38 -82.5 111t-127.5 155q-3 2 -10 2q-6 0 -16 -3t-15 -3 q-11 0 -18.5 11.5t-7.5 23.5t7 20q73 25 85 25q1 0 31 -2.5t72 -2.5q18 -10 18 -26q0 -18 -25 -20.5t-28 -12.5q42 -46 76.5 -101t82.5 -108l63 -65l57 -64l47 -56l64 -78l77 -92q7 -8 17 -8q7 0 23 5t25 5q13 0 33.5 -12.5t20.5 -32.5z" />
<glyph unicode="]" horiz-adv-x="262" d="M220 300q0 -5 -1 -104t-1 -184q-11 -4 -18 -8l-9 -4l-2 -2h-1q-1 1 -3.5 2t-7 2.5t-13 3t-20.5 2.5h-5q-10 0 -27.5 -6.5t-25.5 -6.5t-16 5q-12 8 -12 19q0 5 3 11q6 12 30.5 14.5t32.5 12.5q24 31 24 75q0 10 -1.5 32.5t-1.5 36.5q0 10 2 36q4 38 7 139.5t8 145.5 q4 48 4 60q0 46 -13 66t-53 51q-5 4 -14 4q-4 0 -14 -2t-15 -2q-9 0 -14 6q-5 5 -5 9t5 9q14 15 37 15q9 0 29 -3t24 -3h5q9 0 31.5 3t32.5 3q21 0 21 -12q0 -7 -7 -18q-1 -27 -1 -78q0 -46 2.5 -152.5t2.5 -177.5z" />
<glyph unicode="^" horiz-adv-x="346" d="M134 453q-1 -11 -46 -11q-68 0 -68 13v1q30 80 106 227q50 25 71 25q18 0 35 -10q20 -29 30 -50t20 -55t15 -49q19 -55 29 -94v-1q0 -14 -54 -14q-43 0 -49 10q-2 3 -19.5 55.5t-41.5 65.5q-18 -52 -28 -113z" />
<glyph unicode="_" d="M529.378 151.235q0.739258 -0.0390625 1.87402 0.402344t1.87402 0.40332q13.3018 -0.697266 11.3662 -37.6455q-1.41211 -26.9619 -9.87109 -54.0557t-16.5879 -26.668l-0.686523 1.03711l-1.47852 0.078125l-28.8213 1.50879q-66.5117 3.48242 -180.159 5.42773 q-113.647 1.94629 -269.58 10.1104q-2.32129 -1.88086 -6.0166 -1.6875q-11.8242 0.619141 -10.0977 33.5732q0.994141 18.9736 6.05566 30.7236q13.4453 30.3379 66.043 37.0967t133.149 2.54004l33.9951 -1.7793q27.3438 -1.43164 74.5615 -5.40625 q47.2188 -3.97461 68.6504 -5.09668q74.6396 -3.9082 125.729 9.4375z" />
<glyph unicode="a" horiz-adv-x="417" d="M250 188q-2 28 -23 40q-8 4 -31 -2q-18 -5 -42 -21q-31 -19 -41 -32q-12 -17 -12 -29q2 -57 32 -70q4 -2 7 -2q5 0 14.5 5.5t12.5 6.5q6 2 16 6t15 6.5t12.5 7.5t13.5 12q27 30 27 62q0 1 -0.5 4.5t-0.5 5.5zM178 427q-33 -7 -45 -23q-12 -15 -12 -46v-8v-11 q-1 -18 -16.5 -29.5t-35.5 -11.5q-11 0 -16 2q-32 9 -32 49q0 9 1 13q10 58 42 85q27 23 54 30t72 9q4 0 11 0.5t10 0.5q32 0 58 -18q37 -25 46 -73q7 -38 7 -106v-26q0 -7 0.5 -21.5t0.5 -22.5q0 -4 0.5 -11.5t0.5 -10.5q0 -8 -0.5 -21.5t-0.5 -19.5q0 -19 3 -45v-6v-7 q0 -3 1.5 -6t4.5 -4q2 -1 7 -1q11 0 27 21.5t27 21.5q1 0 7 -2q9 -4 9 -16l-3 -24q0 -3 -0.5 -10t-0.5 -10t-0.5 -8.5t-1.5 -8.5t-2 -8t-2.5 -8.5t-4 -7.5t-5 -7.5t-6.5 -7.5l-7 -5q-4 -3 -9.5 -4t-8.5 -1t-10 -0.5t-10 -0.5q-18 -2 -25 -2q-16 0 -32 8q-6 3 -10 7t-8 10 t-8 10q-3 3 -6 8.5t-6.5 9t-8.5 3.5h-4q-13 0 -29.5 -15t-23.5 -19q-5 -3 -12.5 -8.5t-13 -8.5t-13.5 -5q-25 -5 -42 -5q-27 0 -49 14q-24 16 -34 57q-6 24 -6 42q0 25 12 55q10 27 45 57q35 28 91 51q10 4 33.5 5.5t35.5 11.5q9 8 14 29q3 15 3 27t-3 30q-1 4 -2 12t-2 12 t-3 9.5t-5 9.5t-8 8q-9 6 -18 6q-6 0 -22 -4z" />
<glyph unicode="b" horiz-adv-x="508" d="M251 425q-45 -9 -73 -53q-25 -42 -25 -97q0 -13 2 -51q4 -79 35 -131q8 -15 13 -22.5t14.5 -15t21.5 -11.5q9 -4 21 -4q14 0 34 10q33 18 52 41.5t38 63.5q20 42 20 74q0 8 -2 26q-5 37 -18.5 62.5t-42.5 60.5q-18 23 -44 35q-26 13 -38 13q-1 0 -3.5 -0.5t-4.5 -0.5z M105 788q5 3 9 3q3 0 6 -1.5t6 -5.5l5 -6q2 -2 5 -7.5t4.5 -8.5t4.5 -9.5t4 -8.5q3 -96 3 -180q0 -73 -1 -102q1 -11 10 -11q7 0 27.5 10t29.5 12t33 8.5t41 8.5q5 1 19.5 3.5t22.5 2.5q12 0 25 -6q25 -11 43.5 -29.5t28 -34t25.5 -48.5q19 -38 25 -70t7 -81v-15 q0 -41 -14 -78q-11 -32 -41 -68q-6 -7 -14.5 -19t-14 -18.5t-15 -13t-21.5 -7.5q-84 -11 -154 -11q-114 0 -140 30q-6 103 -6 390q0 183 3 241q-6 9 -22 12t-29 5t-13 9q0 1 2 5q15 29 35.5 50t60.5 49z" />
<glyph unicode="c" horiz-adv-x="432" d="M345 338h-3q-12 0 -25.5 16.5t-17.5 19.5q-3 2 -19 16.5t-30 17.5t-26 3q-28 0 -53 -17q-24 -15 -38 -55q-23 -60 -23 -104q0 -22 4 -45q9 -63 45 -97q17 -16 63 -23q3 0 14 -1.5t16 -1.5q18 0 32 9q11 6 19 15.5t11 17t9 24.5q5 16 22 16q12 0 21 -7.5t9 -18.5v-2 q0 -8 -1 -20q-1 -26 -3 -32t-12 -20q-1 -2 -2 -3q-8 -11 -19.5 -18.5t-17.5 -9.5l-26 -9q-18 -5 -36 -5q-5 0 -15.5 0.5t-16.5 0.5q-13 -1 -33 -1t-32 4q-42 11 -73 39q-52 51 -64 103q-10 39 -10 73q0 37 13 80q13 48 29 77t49 54q56 44 129 44h14q26 -1 36.5 -2.5t27 -10 t33.5 -25.5q30 -30 30 -60q0 -9 -1 -14q-7 -27 -29 -28z" />
<glyph unicode="d" horiz-adv-x="444" d="M240 425q-4 1 -10 1q-9 0 -35 -12q-25 -13 -43 -35q-29 -36 -42 -60t-18 -60q-2 -22 -2 -30q0 -36 20 -68q16 -25 35.5 -38.5t52.5 -25.5q23 -9 36 -9q8 0 18 3q4 1 7.5 3t7 4.5t6 4t5.5 5t4.5 5t4.5 6.5t4 6t4.5 7t4.5 7q30 48 34 100q2 26 2 37q0 52 -26 95 q-28 45 -70 54zM259 692q-1 3 -1 9q0 20 17 45t34 36q5 4 17 4q20 0 40.5 -10t20.5 -22q0 -2 -2 -6q9 -210 9 -599v-41q0 -7 16.5 -23.5t16.5 -22.5v-5q0 -40 -20 -49q-2 -1 -8 -1q-5 0 -17 1.5t-16 1.5h-2h-2q-15 0 -35 24.5t-30 24.5q-5 0 -10 -4q-21 -15 -65 -32t-80 -17 q-10 0 -14 1q-15 2 -24.5 8.5t-23.5 26.5l-16 23q-29 35 -40 66q-14 37 -14 78v12q3 89 32 148q19 39 39 62.5t55 47.5q32 21 66 22h4q19 0 68 -17q7 -2 19.5 -14t16.5 -12q5 0 6 9q-1 28 -1 80q0 49 3 144l1 3q0 3 -4 3q-3 0 -20 -6t-25 -6q-10 0 -11 7z" />
<glyph unicode="e" horiz-adv-x="364" d="M112 269q-2 -20 -2 -32q0 -24 4 -47q5 -33 13 -52.5t28 -36.5q5 -5 10.5 -8t13 -4.5t11 -2.5t13.5 -2t14 -1t15.5 -1.5t17.5 -1.5q17 0 30 9q7 5 10 11t6 17t5 16q5 16 22 16q11 0 20.5 -8t9.5 -19v-1q-3 -43 -4.5 -49.5t-12.5 -25.5q-14 -24 -42 -37q-13 -6 -31 -6 q-5 0 -17.5 1t-19.5 1q-13 -1 -33 -1t-32 4q-42 11 -73 39q-52 51 -64 103q-10 39 -10 73q0 37 13 80q13 48 29 77t49 54q55 42 114 42q8 0 28 -2q23 -2 35.5 -5t26.5 -12.5t23 -27.5q21 -42 21 -70q0 -22 -12 -52q-9 -27 -28 -28q-11 -1 -84.5 -6t-102.5 -5q-13 0 -14 1z M129 337q5 -5 39 -5q80 0 82 11q0 6 1.5 18t1.5 17q0 18 -13 28q-14 9 -26 9q-20 0 -48 -19q-15 -10 -27.5 -24.5t-12.5 -25.5q0 -4 3 -9z" />
<glyph unicode="f" horiz-adv-x="322" d="M165 438h5q14 0 34.5 4t27.5 4q17 0 28 -14q9 -12 9 -25q0 -25 -21 -43q-12 -11 -32 -11q-8 0 -23.5 2t-22.5 2h-2q-6 -79 -6 -194q0 -61 1 -89q0 -10 15 -10h10q15 0 21 -7q11 -17 11 -30q0 -12 -11 -27h-188q-14 12 -14 29q0 13 8 26q6 10 25.5 12t25.5 11 q2 58 2.5 138t1.5 109q-4 12 -18.5 21.5t-21.5 18.5q-7 12 -7 27q0 4 2 14q4 14 22 29.5t23 27.5q4 25 4 49v30q0 40 15 69q16 33 35.5 52.5t53.5 41.5q24 16 74 24q15 3 26 3q10 0 20 -3q3 -1 13.5 -3.5t13.5 -3.5l11 -4q9 -3 13 -5t10 -5.5t9.5 -7.5t7.5 -9.5t7 -12.5 q3 -8 3 -17q0 -18 -14 -30q-8 -5 -18 -5q-3 0 -28 5q-10 3 -24 14t-25 13q-18 2 -25 2q-25 0 -43 -13q-11 -8 -18.5 -20t-9.5 -20l-7 -28q-10 -36 -10 -72q0 -8 0.5 -26t0.5 -30v-13z" />
<glyph unicode="g" horiz-adv-x="515" d="M290 -9q-13 4 -28 4q-30 0 -74 -28q-21 -13 -30 -19.5t-19 -20.5t-10 -30v-3q1 -17 12 -30.5t22.5 -20t33.5 -16.5q21 -9 45 -9q21 0 51 8q3 1 13.5 3t14 2.5t11.5 3.5t12 5.5t9 7.5t9 12q6 12 6 23q0 13 -11 39q-14 30 -28 46t-39 23zM233 429q-4 1 -11 1q-24 0 -58 -34 q-32 -31 -35 -74v-9q0 -35 25 -69q26 -36 40 -43q9 -5 20 -5h6q18 2 31 15.5t18.5 26t13.5 36.5q9 26 9 45q0 21 -9 47q-8 20 -12 28.5t-14 19.5t-24 15zM386 395q-2 -7 -2 -19t7.5 -35t7.5 -39v-2v-19q0 -14 -0.5 -20t-2 -16t-5.5 -18t-10 -16q-15 -19 -34 -28.5t-46 -18 t-44 -17.5q-11 -6 -31.5 -11t-32.5 -12t-15 -23v-4q0 -22 34 -36q21 -9 39 -9q13 0 39 5.5t41 5.5q12 0 24 -3q30 -7 42 -10.5t31 -14t33 -26.5q26 -30 26 -75v-8q-1 -40 -28 -74t-55 -52t-80 -41q-58 -25 -131 -28q-11 -1 -31 -1q-30 0 -54 12q-17 9 -26.5 19.5t-24.5 31.5 q-4 6 -13.5 18.5t-13.5 19t-9.5 16.5t-8 19.5t-2.5 19.5t1 15q2 10 8 18t11.5 12t16.5 11t16 11q10 8 30 11t32.5 8.5t13.5 19.5v1q0 7 -5.5 10t-14 5.5t-13.5 6.5q-6 5 -20.5 14t-21.5 17t-7 20q12 21 32 41.5t30 32.5q1 3 1 8q0 10 -16 38q-8 17 -33 42.5t-31 48.5 q-3 11 -3 19q0 7 9 43q4 17 21.5 46.5t17.5 51.5v5q-1 11 -15 22.5t-14 20.5q0 5 1 8h6q11 0 30 -10.5t32 -10.5q22 0 52.5 15t50.5 17q5 1 14 1q14 0 37 -6q15 -4 43 -20.5t50 -17.5h2q17 0 40 14t38 15q4 0 14.5 2t15.5 2q14 0 15 -10q4 -30 4 -42q0 -27 -12 -51 q-5 -11 -8 -16.5t-10 -11t-16 -6.5h-6q-12 0 -29 17t-34 21z" />
<glyph unicode="h" horiz-adv-x="485" d="M107 95q-5 139 -5 314v236q-7 11 -27.5 16t-28.5 12q-2 2 -8 6.5t-8.5 7t-5 7t-2.5 8.5q0 1 0.5 2.5t0.5 2.5q2 7 5.5 11.5t10.5 7.5t11 4.5t15.5 3t14.5 2.5q60 11 62 11q26 0 42 -17q4 -75 4 -170v-109q6 7 11.5 12.5t12.5 9.5l12 6q3 2 13 4.5t13 3.5t17 3t17 3 q6 1 16 1q32 0 81 -38q28 -22 41 -62q19 -60 19 -124q0 -28 -4.5 -83.5t-4.5 -85.5v-16q5 -13 20.5 -18.5t19.5 -13.5q6 -11 6 -23q0 -10 -6 -18q-15 1 -31 1q-5 0 -22.5 -0.5t-36.5 -0.5q-49 0 -92 1q-10 10 -10 24t10 27q6 9 25.5 9.5t25.5 8.5q19 118 19 155q0 38 -7 81 q-7 45 -63 73q-18 8 -29 8t-28 -5q-3 -1 -10 -2.5t-10.5 -2.5t-9 -3t-8 -4.5t-5 -6.5t-2.5 -9q-2 -24 -2 -72q0 -25 1 -73.5t1 -71.5q0 -34 -1 -51q5 -12 22.5 -12t22.5 -7q17 -23 17 -40q0 -13 -10 -24q-127 -2 -212 -2q-18 13 -18 31q0 8 5 18q9 18 46.5 18.5t46.5 14.5z " />
<glyph unicode="i" horiz-adv-x="250" d="M137 576q-25 2 -35 12q-11 11 -11 34q0 26 11 40q16 20 40 23q2 0 6.5 0.5t6.5 0.5q29 0 44 -19q15 -17 15 -35q0 -12 -4 -21q-4 -14 -32 -27q-17 -8 -34 -8h-7zM15 406q26 12 57 23q2 1 22 8.5t31 7.5q1 0 4 -0.5t4 -0.5q37 -5 51 -29q12 -20 12 -42q0 -14 -7 -45 t-7 -50q0 -33 -2.5 -87.5t-2.5 -118.5q5 -13 26 -17.5t26 -14.5t5 -19q0 -12 -10 -21h-199q-10 9 -10 20q0 7 4 14q8 15 38.5 17t39.5 15v43v63q0 56 -6 154q-9 22 -35 42.5t-41 37.5z" />
<glyph unicode="j" horiz-adv-x="286" d="M185 576q-24 2 -34 12t-12 34q0 24 12 40q16 20 40 23q2 0 6.5 0.5t6.5 0.5q28 0 43 -19q16 -16 16 -36q0 -6 -4 -20q-5 -14 -32 -27q-17 -8 -35 -8h-7zM167 -161q-1 147 -2 147t-1 93q0 152 1 295q-5 6 -16 6q-4 0 -12.5 -1t-12.5 -1q-11 0 -16 7q-13 18 -13 34 q0 18 13 34q88 22 131 22q15 0 23 -1v-570q-12 -44 -36 -72q-23 -27 -80 -62q-35 -23 -57 -23h-5q-17 0 -37 11q-25 13 -32 29q-6 13 -6 24q0 12 6 27q10 24 34 34q15 6 27 6t25 -6q7 -3 11.5 -14t10.5 -14q20 -11 28 -11q5 0 16 6z" />
<glyph unicode="k" horiz-adv-x="537" d="M80 649q-6 8 -29 9t-29 8q-9 10 -9 23q0 9 3 16l14 9l9 6q3 2 4 3t3 2t3.5 1.5t6.5 2.5q30 11 59 11h9q6 0 19 -0.5t19 -1t14.5 -4.5t14.5 -12q7 -10 7 -21q0 -10 -7 -24q-3 -5 -12 -8.5t-11 -8.5q4 -124 4 -247q0 -19 -0.5 -65t-0.5 -74q1 -7 8.5 -14t14.5 -9 q20 16 43.5 32t42 30.5t40.5 37.5q7 19 7 24q0 9 -7 16q-4 4 -11 4q-4 0 -13 -3t-14 -3q-2 0 -8 2q-22 7 -23 22v2q0 22 29 38q89 4 205 12q19 -13 19 -32q0 -7 -1 -10l-88 -60l-72 -49l-80 -62q69 -65 140 -119t122 -100l-2 -24q-45 -8 -85 -8q-16 0 -60 2t-79 2 q-5 5 -5 12q0 9 16 27q7 7 21 7q4 0 12.5 -1t11.5 -1q15 0 18 12q-71 38 -95 55.5t-93 80.5v-44q0 -50 -3 -104q5 -7 21 -8t22 -9q10 -15 0 -25q-43 -8 -117 -8q-12 0 -35 0.5t-34 0.5q-6 5 -6 15t6 19q5 9 21 12t21 11q-1 55 -1 161q0 42 0.5 127.5t0.5 130.5q0 112 -1 173 z" />
<glyph unicode="l" horiz-adv-x="281" d="M215 716v-627q1 0 15 -7t20.5 -13.5t14.5 -19.5q5 -6 5 -15q0 -2 -5 -25l-226 -5q-10 14 -10 30q0 9 4 27q8 8 17.5 13t15.5 7t18.5 4.5t16.5 3.5l-1 529h-13h-6q-25 0 -39 5t-27 24l6 39q4 11 11 19.5t12.5 12.5t20.5 13q21 10 46 10q34 0 104 -25z" />
<glyph unicode="m" horiz-adv-x="711" d="M686 104q15 -30 15 -48q0 -10 -3 -22q-6 -18 -23 -27q-23 -1 -41 -1q-30 0 -91 1q-11 5 -17 21q-8 21 -8 34q0 9 3 18q4 12 21 27t17 16v100q0 59 -1 125q-6 21 -27 36q-24 17 -51 18h-5q-17 0 -41 -13q-28 -17 -38 -40q3 -61 3 -100q0 -19 -0.5 -50.5t-0.5 -47.5v-32 q4 -7 19.5 -8t20.5 -7q16 -19 16 -41q0 -12 -5 -29q-4 -18 -22 -27q-23 -1 -50 -1q-44 0 -104 1q-11 5 -17 21q-10 26 -10 34q0 10 4 18q6 12 27.5 20t26.5 19q0 25 -0.5 49.5t-1 37.5t-0.5 21q0 13 0.5 40.5t1.5 64.5q-3 23 -12 34q-15 16 -38 19h-8q-24 0 -49 -15 q-30 -17 -40 -40q-1 -23 -1 -61q0 -15 0.5 -62t0.5 -88q4 -6 14.5 -10.5t14.5 -9.5q14 -23 14 -39q0 -9 -3 -18q-6 -21 -14 -26q-6 -4 -18 -7h-54h-73q-20 6 -29 18q-12 17 -12 31q0 6 3 14q4 14 25 25t27 22v49v65q0 72 -1 152q-6 10 -27.5 13.5t-23.5 14.5q61 55 97 91 q5 0 8.5 -0.5t7 -1.5t5.5 -1.5t5 -2.5t4 -3t4.5 -4t5.5 -4q5 -3 10 -14.5t12 -13.5q10 -2 13 -2q13 0 34.5 11.5t28.5 13.5q6 2 14 5.5t14.5 5.5t14.5 2q14 -1 33.5 -11t26.5 -12q5 -2 14.5 -5.5t16 -5t14.5 -1.5h6q9 1 20.5 9t19.5 10q36 11 60 11q12 0 19 -1q48 -4 86 -28 q46 -31 62 -74q3 -105 3 -137q0 -22 -1.5 -55t-1.5 -58q3 -10 15 -18t15 -15z" />
<glyph unicode="n" horiz-adv-x="470" d="M383 448q18 -26 18 -66q0 -21 -5 -33q3 -61 3 -100q0 -19 -0.5 -50.5t-0.5 -47.5v-32q4 -7 19.5 -8t20.5 -7q16 -19 16 -41q0 -12 -5 -29q-4 -18 -22 -27q-23 -1 -50 -1q-44 0 -104 1q-11 5 -17 21q-10 26 -10 34q0 10 4 18q6 12 27.5 20t26.5 19q0 25 -0.5 49.5t-1 37.5 t-0.5 21q0 13 0.5 40.5t1.5 64.5q-3 23 -12 34q-15 16 -38 19h-8q-24 0 -49 -15q-30 -17 -40 -40q-1 -23 -1 -61q0 -15 0.5 -62t0.5 -88q4 -6 14.5 -10.5t14.5 -9.5q14 -23 14 -39q0 -9 -3 -18q-6 -21 -14 -26q-6 -4 -18 -7h-54h-73q-20 6 -29 18q-12 17 -12 31q0 6 3 14 q4 14 25 25t27 22v49v65q0 72 -1 152q-6 10 -27.5 13.5t-23.5 14.5q61 55 97 91q5 0 8.5 -0.5t7 -1.5t5.5 -1.5t5 -2.5t4 -3t4.5 -4t5.5 -4q5 -3 10 -14.5t12 -13.5q10 -2 13 -2q13 0 34.5 11.5t28.5 13.5q6 2 14 5.5t14.5 5.5t14.5 2q11 0 19.5 -3t22 -10.5t18.5 -9.5 t16 -5.5t17.5 -7.5t11.5 -11z" />
<glyph unicode="o" horiz-adv-x="432" d="M171 394q-24 -15 -38 -55q-23 -60 -23 -104q0 -22 4 -45q9 -63 45 -97q17 -16 63 -23q3 0 14 -1.5t16 -1.5q18 0 32 9q11 6 19 15.5t11 17t9 24.5q19 51 19 94q0 26 -4 51q-9 57 -39 96q-24 29 -49 34q-14 3 -26 3q-28 0 -53 -17zM226 5q-13 -1 -33 -1t-32 4 q-42 11 -73 39q-52 51 -64 103q-10 39 -10 73q0 37 13 80q13 48 29 77t49 54q56 44 129 44h14q26 -1 36.5 -2.5t27 -10t33.5 -25.5q39 -39 53 -70q18 -38 21 -108q1 -13 1 -36q0 -41 -12 -84q-20 -64 -51 -96q-22 -23 -63 -37q-18 -5 -36 -5q-5 0 -15.5 0.5t-16.5 0.5z" />
<glyph unicode="p" horiz-adv-x="474" d="M199 -4q-1 -28 -1 -60q0 -16 1 -44t1 -70q4 -10 23 -19.5t24 -20.5q4 -9 4 -22q0 -14 -10 -24h-61h-50q-58 0 -92 2q-18 11 -18 28q0 1 0.5 3t0.5 3q2 15 24 27.5t27 24.5v114q0 27 -0.5 120t-0.5 281q-5 9 -11 15t-11.5 8.5t-17.5 7t-21 9.5q2 11 8 21t11.5 16.5 t17.5 14t18.5 11l23.5 12.5l23 11h7q8 0 11.5 -2.5t13.5 -14t25 -23.5q11 6 22.5 13.5t16 10t11.5 5t18 5.5q27 6 47 6q18 0 44 -6q50 -12 74 -40q6 -7 10.5 -14t7 -12t5.5 -14t4 -13t3.5 -16t3.5 -16q12 -51 12 -96v-18q0 -6 -0.5 -20t-1 -20t-1.5 -17t-2.5 -18t-5 -17 t-7.5 -20q-3 -8 -6.5 -13.5t-9.5 -12.5l-7 -10q-2 -2 -11 -10l-11 -11q-41 -39 -68 -51q-21 -9 -57 -9h-4q-10 0 -25 2.5t-24 2.5h-8zM168 334v-96v-109q0 -22 31 -40q22 -13 42 -13q13 0 21 2q40 9 70 48q22 29 30 92q2 14 2 20q0 13 -5 27q-12 41 -41 73q-25 25 -53 32 q-12 3 -23 3q-16 0 -33 -7q-2 -1 -8 -3l-9 -3l-7 -3q-5 -2 -7 -4l-5 -5q-3 -3 -4 -6.5t-1 -7.5z" />
<glyph unicode="q" horiz-adv-x="474" d="M393 458q2 -276 2 -299q0 -43 -0.5 -143t-0.5 -181q6 -12 27.5 -24t24.5 -27v-5q0 -18 -17 -29q-30 -2 -81 -2h-81h-41q-11 10 -11 23q0 10 5 22t23.5 21t22.5 19q0 43 1 71t1 44q0 32 -1 60h-7q-9 0 -24.5 -3t-24.5 -3h-4q-38 2 -57 9q-21 9 -34 19.5t-34 32.5 q-2 2 -6 5.5t-5.5 5t-5.5 5t-5 5.5l-5 4q-3 3 -4.5 5.5t-3.5 5.5l-4 6q-2 3 -3.5 6.5t-3.5 7.5q-4 10 -7.5 20.5t-5 16.5t-2.5 18.5t-1 16t-0.5 20.5t-0.5 20v19q0 50 11 95q1 5 4.5 19t5 19.5t5 15t8.5 16.5t12 15q23 27 73 40q26 6 45 6q21 0 46 -6q11 -3 18 -5.5t11.5 -5 t16.5 -10t23 -13.5q12 10 20.5 19t11.5 13t7.5 6t10.5 2h7q4 -2 10 -5.5t28 -12.5zM299 345q0 4 -1 7.5t-4 6.5l-5 5q-2 2 -7 4l-8 3q-2 1 -8 3t-8 3q-18 7 -34 7q-10 0 -23 -3q-29 -8 -52 -32q-28 -29 -42 -73q-4 -13 -4 -28q0 -12 1 -19q8 -61 31 -92q30 -40 70 -48 q14 -2 19 -2q20 0 43 14q31 18 32 39v28v129v48z" />
<glyph unicode="r" horiz-adv-x="367" d="M49 0q-10 4 -17 23q-5 13 0 23q6 11 23 19.5t23 19.5q2 29 2 75q0 14 -0.5 46.5t-0.5 54.5q0 41 1 67q-6 13 -31.5 26.5t-25.5 30.5q5 7 14.5 23.5t12.5 19.5l9 14q7 9 12 12l13 8q7 4 18 8q9 4 20 4q16 0 32 -9q14 -13 17 -15.5t9.5 -4t18.5 -7.5q10 6 22.5 17.5t24 18 t27.5 6.5h4q50 -4 68 -74q3 -10 3 -19q0 -18 -14 -38q-20 -29 -41 -29h-5q-13 3 -20.5 26t-19.5 26q-33 -22 -61 -44q-1 -48 -1 -96q0 -16 0.5 -34t0.5 -32q0 -5 -0.5 -23t-0.5 -33q3 -8 14 -14t14 -14q5 -10 5 -24q0 -17 -10 -28q-22 -6 -78 -15t-82 -15z" />
<glyph unicode="s" horiz-adv-x="314" d="M25 146q4 10 11 10q9 0 25.5 -25t37.5 -50.5t41 -25.5h4q28 3 44.5 24t18.5 50v2q0 8 -2 15t-8 14t-9 10t-14 11.5t-13 10.5q-17 14 -64 20.5t-61 32.5q-20 37 -20 64q0 4 0.5 12.5t0.5 14.5q1 40 23 66.5t64 52.5q29 17 54 17q14 0 32 -5q61 -16 79 -63q7 -17 7 -28 q0 -16 -18 -52q-3 -6 -6 -6q-5 0 -11.5 13t-15.5 29t-18 22q-4 2 -12.5 8t-13 8.5t-11.5 5t-13 2.5q-3 0 -13 -2q-46 -15 -46 -52q0 -7 1 -11q4 -19 20 -26.5t39.5 -13.5t36.5 -17q9 -7 30.5 -22t30 -22.5t20 -23t17.5 -34.5q9 -27 9 -50q0 -37 -26 -75q-12 -17 -29 -27.5 t-28.5 -14t-40.5 -10.5q-24 -6 -42 -6q-19 0 -43 6q-1 0 -7.5 1.5t-8 2t-7 2t-6.5 1.5l-6 2q-5 2 -7 3.5t-5.5 3.5t-6 4.5t-5 5.5t-4.5 6q-21 32 -21 57q0 21 16 52z" />
<glyph unicode="t" horiz-adv-x="316" d="M283 448q15 -15 15 -36q0 -22 -15 -38q-17 -1 -38 -1q-8 0 -18.5 0.5t-17.5 0.5q-19 0 -35 -1q-15 -5 -22 -16q1 -35 1 -80q0 -6 -2 -120q2 -9 3.5 -27.5t3.5 -27t10.5 -18.5t23.5 -15q10 1 32.5 10t30.5 9h3l2 -1q12 -3 12 -12q0 -7 -15 -33q-2 -4 -31 -29 q-27 -9 -49 -9q-18 0 -37 4q-46 7 -76 56v82v209q-3 2 -10 6t-10 7l-10 6q-5 4 -8.5 9t-6.5 11q-2 4 -2 8q0 8 9 32l42 44q15 16 17 17.5t5 4.5t8.5 9t23.5 27q4 1 10 1q14 0 23 -16q9 -14 9 -27q0 -4 -1 -15t-1 -19v-9q34 3 52 3q17 0 38 -2z" />
<glyph unicode="u" horiz-adv-x="438" d="M429 76q-25 -32 -33.5 -41.5t-27.5 -21t-53 -22.5q-11 0 -17 4.5t-13.5 17t-15.5 21.5q-7 1 -9.5 0.5t-9 -3t-9.5 -3.5q-11 -3 -41 -15.5t-51 -12.5h-5q-33 1 -57 23q-29 26 -40 72v82q0 -6 -1 -6v204q-5 9 -23 14t-23 15q-3 7 -3 12.5t3 10.5q4 7 8.5 12t11.5 9l10 8 q3 2 12.5 5t12 3.5t14.5 4t14 3.5q14 3 23 0q26 -6 34 -23q1 -72 1 -130q0 -11 -0.5 -54t-0.5 -123q27 -46 76 -46q9 0 13 1q24 3 38 18.5t25 43.5q0 42 -0.5 56t-0.5 178q-8 10 -28 10h-15q-22 0 -30 12q-4 7 -4 15q0 12 10 25q4 5 9 8.5t11 5t10.5 2.5t13.5 1.5t13 1.5 q21 3 39 3q26 0 52 -11q1 -1 5 -2t6 -2l5 -2l4.5 -3t3.5 -3t3 -4.5t1 -5.5v-3q0 -7 -10.5 -16t-12.5 -15v-283l19 -27q3 -3 12.5 -9t20.5 -15z" />
<glyph unicode="v" horiz-adv-x="428" d="M0 465q12 24 56 24h17h14q10 1 30 1q37 0 61 -12q14 -7 14 -24q0 -21 -19 -44q-3 -4 -10.5 -3.5t-12 1.5t-6.5 -4q-1 -8 -1 -20q0 -7 6 -43q3 -18 5 -43.5t3.5 -39t10.5 -37t26 -50.5l13 1q0 1 2 3q14 23 23.5 41t15.5 36l9 28q3 9 8.5 32.5t8.5 34.5l6 16q3 10 5 17.5 t2 14.5q0 12 -6 20q-4 6 -14 6h-12q-10 0 -14 6q-8 11 -8 25q0 19 14 26q21 11 49 11q10 0 38 -2q5 0 16.5 -0.5t16.5 -1t13 -2.5t14.5 -6t11.5 -11q11 -14 11 -29q0 -11 -7 -25q-3 -4 -11.5 -6t-11.5 -4q-37 -55 -76 -137.5t-68 -131.5q-11 -25 -13.5 -60.5t-11.5 -57.5 q-12 -8 -28 -8q-24 0 -40 18q-13 27 -15.5 64t-5.5 49q-11 39 -21 69.5t-17 49.5l-22 59l-29 80q-5 4 -10 4.5t-7 2.5q-27 27 -27 46q0 9 4 16z" />
<glyph unicode="w" horiz-adv-x="659" d="M59 355q-4 7 -7.5 17t-6 15t-10 14.5t-20.5 21.5v9q0 33 23 48q48 8 63 8q30 0 62 -14l6 -4q3 -2 4 -2.5t2.5 -3t2 -3.5t1 -5.5t0.5 -8.5v-13q-3 -4 -14.5 -2.5t-14.5 -3.5q18 -43 30 -87t22 -67t33 -50q13 9 27.5 18t19 12t10.5 10.5t8.5 16t6.5 26.5q9 39 9 55t-5 23 q-9 14 -29.5 26.5t-27.5 28.5q-6 12 -6 22q0 12 6 18q30 17 52 17q15 0 39 -8q3 -1 4.5 -3t2.5 -6.5t1.5 -8.5t2 -12t2.5 -15q4 7 7 14.5t5 11.5l4 8l3 6q1 2 3 3t5 2q26 8 35 8q14 0 28 -8q10 -9 10 -22q0 -8 -5 -18q-6 -11 -24 -22.5t-23 -24.5q-3 -8 -3 -22 q0 -15 3.5 -46t3.5 -38l10 -26q5 -13 5 -15.5t5 -9.5t6.5 -7.5t14.5 -9.5t23 -17q17 4 28.5 10t18.5 17.5t10 18.5t8.5 26t8.5 28q2 9 7.5 24.5t7.5 25t2 18.5q0 12 -4 23q-4 13 -13.5 22.5t-14.5 19.5q-9 17 0 28q13 17 39 17q9 0 29 -2q1 0 7.5 -0.5t8 -0.5t6.5 -0.5 t7 -1.5t5.5 -2.5t6.5 -3.5l5 -6q10 -13 10 -30q0 -10 -5 -27q-2 -7 -10.5 -15t-11.5 -13q-14 -45 -33.5 -128.5t-41 -135t-68.5 -112.5q-16 -14 -28 -14q-5 0 -11 3q-34 47 -44 75t-29 117q-2 3 -7 12t-10 14.5t-11 5.5h-1q-8 0 -14 -4t-15 -15.5t-10 -12.5 q-9 -27 -13.5 -39.5t-11.5 -30t-8 -21t-8.5 -18t-9 -16.5t-13.5 -22l-17 -28q-22 -20 -35 -20q-5 0 -11 3q-39 73 -65.5 183.5t-55.5 171.5z" />
<glyph unicode="x" horiz-adv-x="494" d="M34 406q-6 8 -6 26q0 25 8 36q21 5 38 10l22 8q6 2 17.5 3.5t30.5 1.5h18q56 0 71 -23q7 -10 7 -22q0 -13 -7 -23q-3 -5 -14.5 -5.5t-13.5 -6.5q6 -13 10 -28.5t8.5 -24t15.5 -15.5t23 -7q9 0 22 5q11 4 16 7.5t7.5 7.5t10.5 15.5t19 24.5q5 18 -1 27q-4 4 -15.5 7 t-13.5 10q-1 3 -1 9q0 17 30 36q8 1 23.5 3.5t24.5 2.5h9q2 0 6 -0.5t7 -0.5q4 0 12.5 0.5t12.5 0.5q29 0 41 -19q4 -5 4 -16q0 -19 -10 -37q-3 -7 -11 -7q-3 0 -8 1t-8 1q-7 0 -9 -3q-10 -11 -35.5 -36.5t-47.5 -50t-47 -57.5q14 -36 36.5 -63.5t56 -61t55.5 -62.5 q11 -29 11 -36q0 -8 -6 -17q-14 -6 -25.5 -9.5t-17.5 -4.5t-20 -2t-22 -2q-38 -4 -60 -4q-24 0 -43 4q-6 5 -6 21q0 4 0.5 10.5t0.5 8.5q0 8 15 8q2 0 6.5 -0.5t7.5 -0.5q15 0 18 7q2 6 2 9q0 6 -4 18l-5 16q-3 12 -9 19.5t-11 10.5t-20 9q-8 1 -16 1q-12 0 -26 -1 q-8 -8 -16 -12.5t-14.5 -10.5t-14.5 -21q-1 -3 -3.5 -7t-2.5 -6.5t2 -15.5q4 -4 10 -4q3 0 9.5 1.5t9.5 1.5q7 0 11 -5q3 -4 3 -10t-9 -24q-3 -6 -8 -10t-8.5 -5.5t-12 -4t-11.5 -3.5q-9 -1 -22.5 -2t-23.5 -2t-18 -1q-23 0 -44 5q-12 4 -16.5 6.5t-9 7.5t-8.5 15 q-9 20 -9 33q0 15 9 24q9 10 23 10q5 0 15.5 -1.5t16.5 -1.5q11 0 19 4q54 54 69 72t39 60l-15 32l-13 29.5t-12.5 24.5t-18.5 30l-26 37q-16 11 -41 11h-7q-22 0 -36 4z" />
<glyph unicode="y" horiz-adv-x="491" d="M112 -104q29 16 41 41t21 69q1 7 2 11q3 15 3 28q0 17 -7 52q-18 91 -37.5 149.5t-60.5 141.5q-26 4 -38.5 12t-20.5 26q-5 10 -5 16q0 9 11 21l18 11q8 4 16.5 7.5t12.5 5t13.5 2.5t11.5 1.5t14.5 1t15.5 0.5q28 2 40 2q33 0 51 -20q14 -14 14 -33q0 -15 -8 -24 q-4 -4 -10 -4q-3 0 -10 1t-10 1q-6 0 -10 -4q-6 -7 -6 -15q0 -5 3 -16t3 -14q10 -66 51 -159q11 -6 21 -6q15 0 31 11q29 56 40 85t16 75l3 24q0 12 -8 21q-4 4 -10 4q-2 0 -7 -1t-8 -1q-6 0 -9 4q-10 12 -10 25t10 26q34 18 91 21q4 0 10.5 0.5t9.5 0.5q28 0 46 -11 q21 -23 21 -46q0 -11 -6 -23q-2 -4 -2 -4.5t-2 -1t-3.5 0t-8.5 -1.5l-15 -5l-77 -162l-68 -145l-70 -139l-109 -203q-18 -7 -34 -7q-28 0 -74 34q-9 13 -9 30q0 13 9 38q3 23 10.5 33t24.5 18q6 3 12 3q8 0 22 -5.5t21 -5.5t13 3z" />
<glyph unicode="z" horiz-adv-x="466" d="M35 301q-9 2 -12 8.5t-3 21.5t-1 20q-3 25 -3 48q0 35 9 71q28 4 45 4q9 0 23.5 -2t27.5 -2q38 0 95.5 3.5t84.5 3.5q46 0 99 -7q12 -11 12 -27q0 -6 -12 -47l-199 -261q0 -1 -0.5 -4t-0.5 -5q0 -17 12 -25q45 -9 54 -9q6 0 41 9q31 14 56 61t41 60q23 -7 30 -27.5 t10 -57.5q2 -28 2 -42q0 -57 -36 -84h-46q-30 0 -69.5 -1t-64.5 -1h-20h-17q-18 0 -41.5 -1t-35.5 -1q-41 0 -116 10q-2 2 -2 8q0 15 17 43l88 106l73 85q29 36 67 88q13 33 13 42q0 12 -8 21q-17 20 -45 20q-23 0 -63 -17q-18 -8 -31 -22.5t-19.5 -29t-20.5 -31.5t-34 -29z " />
<glyph unicode="{" horiz-adv-x="256" d="M47 383q12 4 29 8.5t22 6.5l14 6q8 3 11 8.5t6.5 14t7.5 22.5q2 8 2 12q0 18 -21 47t-23 34q-26 52 -26 91t26 71q35 42 69 42q12 0 24 -6t12 -17q0 -6 -3 -13q-5 -12 -31 -13.5t-32 -13.5q-9 -19 -9 -36q0 -25 27.5 -70.5t35.5 -73.5q7 -26 7 -41q0 -53 -70 -85 q73 -28 73 -88q0 -2 -0.5 -5.5t-0.5 -5.5q-5 -48 -32 -106t-27 -80q0 -25 20 -51q5 -6 13 -6q5 0 15.5 3t15.5 3q7 0 13 -6q5 -5 5 -9t-5 -9q-21 -23 -51 -23q-20 0 -39 14q-42 35 -42 94q0 44 22 80l13 18q10 16 12.5 21t6.5 16.5t4 21.5q0 9 -1 13q-3 16 -8 29t-16 24.5 t-18.5 18t-25.5 20t-25 19.5z" />
<glyph unicode="|" horiz-adv-x="255" d="M195 39q0 -1 0.5 -2.5t0.5 -2.5q0 -18 -37 -18q-27 0 -54.5 9.5t-27.5 20.5l1 1v2v39q0 90 -4 243.5t-4 364.5q-2 3 -2 8q0 16 33 16q19 0 31 -6q31 -16 40.5 -86.5t9.5 -179.5v-46q0 -37 -1.5 -101t-1.5 -93q0 -101 16 -169z" />
<glyph unicode="}" horiz-adv-x="256" d="M219 357q-12 -4 -29 -8.5t-22 -6.5l-14 -6q-8 -3 -11 -8.5t-6.5 -14t-7.5 -22.5q-2 -8 -2 -12q0 -18 21 -47t23 -34q26 -52 26 -91t-26 -71q-35 -42 -69 -42q-12 0 -24 6t-12 17q0 6 3 13q5 12 31 13.5t32 13.5q9 19 9 36q0 25 -27.5 70.5t-35.5 73.5q-7 26 -7 41 q0 53 70 85q-73 28 -73 88q0 2 0.5 5.5t0.5 5.5q5 48 32 106t27 80q0 25 -20 51q-5 6 -13 6q-5 0 -15.5 -3t-15.5 -3q-7 0 -13 6q-5 5 -5 9t5 9q21 23 51 23q20 0 39 -14q42 -35 42 -94q0 -44 -22 -80l-13 -18q-10 -16 -12.5 -21t-6.5 -16.5t-4 -21.5q0 -9 1 -13 q3 -16 8 -29t16 -24.5t18.5 -18t25.5 -20t25 -19.5z" />
<glyph unicode="&#xad;" horiz-adv-x="346" d="M33 183q-9 12 -9 27q0 18 15 36q14 16 31 20q16 5 39 5q3 0 5 -1h8q21 0 34 3q62 10 65 10q54 0 76 -21.5t22 -48.5q0 -16 -10 -30q-8 -12 -16.5 -19t-23.5 -10.5t-21.5 -4.5t-29 -1.5t-26.5 -0.5q-3 0 -29.5 -1.5t-39.5 -1.5q-62 0 -90 39z" />
<glyph unicode="&#xfc;" horiz-adv-x="438" d="M250 528q-13 4 -21 21q-9 21 -9 38q0 18 9 36q19 34 48 34q28 0 47 -34q11 -22 11 -41q0 -18 -11 -33q-18 -24 -50 -24q-12 0 -24 3zM100 528q-13 4 -21 21q-9 21 -9 38q0 18 9 36q19 34 48 34q28 0 47 -34q11 -22 11 -41q0 -18 -11 -33q-18 -24 -50 -24q-12 0 -24 3z M429 76q-25 -32 -33.5 -41.5t-27.5 -21t-53 -22.5q-11 0 -17 4.5t-13.5 17t-15.5 21.5q-7 1 -9.5 0.5t-9 -3t-9.5 -3.5q-11 -3 -41 -15.5t-51 -12.5h-5q-33 1 -57 23q-29 26 -40 72v82q0 -6 -1 -6v204q-5 9 -23 14t-23 15q-3 7 -3 12.5t3 10.5q4 7 8.5 12t11.5 9l10 8 q3 2 12.5 5t12 3.5t14.5 4t14 3.5q14 3 23 0q26 -6 34 -23q1 -72 1 -130q0 -11 -0.5 -54t-0.5 -123q27 -46 76 -46q9 0 13 1q24 3 38 18.5t25 43.5q0 42 -0.5 56t-0.5 178q-8 10 -28 10h-15q-22 0 -30 12q-4 7 -4 15q0 12 10 25q4 5 9 8.5t11 5t10.5 2.5t13.5 1.5t13 1.5 q21 3 39 3q26 0 52 -11q1 -1 5 -2t6 -2l5 -2l4.5 -3t3.5 -3t3 -4.5t1 -5.5v-3q0 -7 -10.5 -16t-12.5 -15v-283l19 -27q3 -3 12.5 -9t20.5 -15z" />
<glyph unicode="&#x2000;" horiz-adv-x="395" />
<glyph unicode="&#x2001;" horiz-adv-x="791" />
<glyph unicode="&#x2002;" horiz-adv-x="395" />
<glyph unicode="&#x2003;" horiz-adv-x="791" />
<glyph unicode="&#x2004;" horiz-adv-x="263" />
<glyph unicode="&#x2005;" horiz-adv-x="197" />
<glyph unicode="&#x2006;" horiz-adv-x="131" />
<glyph unicode="&#x2007;" horiz-adv-x="131" />
<glyph unicode="&#x2008;" horiz-adv-x="98" />
<glyph unicode="&#x2009;" horiz-adv-x="158" />
<glyph unicode="&#x200a;" horiz-adv-x="43" />
<glyph unicode="&#x2010;" horiz-adv-x="346" d="M33 183q-9 12 -9 27q0 18 15 36q14 16 31 20q16 5 39 5q3 0 5 -1h8q21 0 34 3q62 10 65 10q54 0 76 -21.5t22 -48.5q0 -16 -10 -30q-8 -12 -16.5 -19t-23.5 -10.5t-21.5 -4.5t-29 -1.5t-26.5 -0.5q-3 0 -29.5 -1.5t-39.5 -1.5q-62 0 -90 39z" />
<glyph unicode="&#x2011;" horiz-adv-x="346" d="M33 183q-9 12 -9 27q0 18 15 36q14 16 31 20q16 5 39 5q3 0 5 -1h8q21 0 34 3q62 10 65 10q54 0 76 -21.5t22 -48.5q0 -16 -10 -30q-8 -12 -16.5 -19t-23.5 -10.5t-21.5 -4.5t-29 -1.5t-26.5 -0.5q-3 0 -29.5 -1.5t-39.5 -1.5q-62 0 -90 39z" />
<glyph unicode="&#x2014;" horiz-adv-x="1024" d="M24 144v139h973v-139h-973z" />
<glyph unicode="&#x2018;" horiz-adv-x="288" d="M139 598q20 -12 48 -18t40 -21q18 -24 18 -52q0 -14 -3 -29q-7 -34 -18.5 -53.5t-35.5 -27.5q-17 -5 -28 -5q-44 0 -89 50q-43 46 -43 118q0 3 0.5 11t0.5 12q4 67 47 108q7 6 21 21t18 17.5t19.5 9t35 7.5t54.5 2q2 -2 2 -5q0 -6 -14 -17l-30 -24q-16 -12 -29.5 -38 t-13.5 -58v-8z" />
<glyph unicode="&#x2019;" horiz-adv-x="288" d="M135 543q-20 12 -48 18t-40 21q-18 24 -18 52q0 14 3 29q7 34 18.5 53.5t35.5 27.5q17 5 28 5q44 0 89 -50q43 -46 43 -118q0 -3 -0.5 -11t-0.5 -12q-4 -67 -47 -108q-7 -6 -21 -21t-18 -17.5t-19.5 -9t-35 -7.5t-54.5 -2q-2 2 -2 5q0 6 14 17l30 24q16 12 29.5 38 t13.5 58v8z" />
<glyph unicode="&#x201c;" horiz-adv-x="538" d="M389 598q20 -12 48 -18t40 -21q18 -24 18 -52q0 -14 -3 -29q-7 -34 -18.5 -53.5t-35.5 -27.5q-17 -5 -28 -5q-44 0 -89 50q-43 46 -43 118q0 3 0.5 11t0.5 12q4 67 47 108q7 6 21 21t18 17.5t19.5 9t35 7.5t54.5 2q2 -2 2 -5q0 -6 -14 -17l-30 -24q-16 -12 -29.5 -38 t-13.5 -58v-8zM139 598q20 -12 48 -18t40 -21q18 -24 18 -52q0 -14 -3 -29q-7 -34 -18.5 -53.5t-35.5 -27.5q-17 -5 -28 -5q-44 0 -89 50q-43 46 -43 118q0 3 0.5 11t0.5 12q4 67 47 108q7 6 21 21t18 17.5t19.5 9t35 7.5t54.5 2q2 -2 2 -5q0 -6 -14 -17l-30 -24 q-16 -12 -29.5 -38t-13.5 -58v-8z" />
<glyph unicode="&#x201d;" horiz-adv-x="538" d="M135 543q-20 12 -48 18t-40 21q-18 24 -18 52q0 14 3 29q7 34 18.5 53.5t35.5 27.5q17 5 28 5q44 0 89 -50q43 -46 43 -118q0 -3 -0.5 -11t-0.5 -12q-4 -67 -47 -108q-7 -6 -21 -21t-18 -17.5t-19.5 -9t-35 -7.5t-54.5 -2q-2 2 -2 5q0 6 14 17l30 24q16 12 29.5 38 t13.5 58v8zM385 543q-20 12 -48 18t-40 21q-18 24 -18 52q0 14 3 29q7 34 18.5 53.5t35.5 27.5q17 5 28 5q44 0 89 -50q43 -46 43 -118q0 -3 -0.5 -11t-0.5 -12q-4 -67 -47 -108q-7 -6 -21 -21t-18 -17.5t-19.5 -9t-35 -7.5t-54.5 -2q-2 2 -2 5q0 6 14 17l30 24 q16 12 29.5 38t13.5 58v8z" />
<glyph unicode="&#x2022;" horiz-adv-x="303" d="M114 303q-18 5 -27 27q-12 28 -12 52q0 26 12 47q23 45 63 45t63 -45q15 -27 15 -54q0 -25 -15 -45q-25 -32 -65 -32q-14 0 -34 5z" />
<glyph unicode="&#x2026;" horiz-adv-x="478" d="M357 294q-18 5 -27 27q-12 28 -12 52q0 26 12 47q23 45 63 45t63 -45q15 -27 15 -54q0 -25 -15 -45q-25 -32 -65 -32q-14 0 -34 5zM45 303q-18 5 -27 27q-12 28 -12 52q0 26 12 47q23 45 63 45t63 -45q15 -27 15 -54q0 -25 -15 -45q-25 -32 -65 -32q-14 0 -34 5zM203 294 q-18 5 -27 27q-12 28 -12 52q0 26 12 47q23 45 63 45t63 -45q15 -27 15 -54q0 -25 -15 -45q-25 -32 -65 -32q-14 0 -34 5z" />
<glyph unicode="&#x202f;" horiz-adv-x="158" />
<glyph unicode="&#x205f;" horiz-adv-x="197" />
<glyph unicode="&#x2116;" horiz-adv-x="1270" d="M978.684 142.111q0.369141 -0.0185547 0.936523 0.202148q0.567383 0.219727 0.936523 0.201172q6.65137 -0.348633 5.68457 -18.8213q-0.705078 -13.4805 -4.93359 -27.0264t-8.29395 -13.333l-0.342773 0.518555l-0.739258 0.0380859l-14.4102 0.754883 q-33.2559 1.74121 -90.0801 2.71387q-56.8232 0.973633 -134.789 5.05566q-1.16113 -0.94043 -3.00879 -0.84375q-5.91211 0.30957 -5.0498 16.7852q0.496094 9.48633 3.02637 15.3613q6.72168 15.168 33.0205 18.5469t66.5742 1.27051l16.998 -0.890625 q13.6719 -0.71582 37.2812 -2.70312q23.6084 -1.9873 34.3242 -2.54785q37.3203 -1.9541 62.8652 4.71777zM649 688q-18 0 -41 -6t-30 -6q-14 0 -26 12q-6 6 -6 14q0 5 4.5 17t4.5 18q0 5 -3 11q62 4 88 4q42 0 137 -6q12 0 12 -14q0 -25 -21 -46q-10 -9 -20 -9 q-3 0 -16 1.5t-24 1.5q-5 -99 -5 -187q0 -49 2.5 -121.5t2.5 -113.5q0 -77 -5 -161q-1 -1 -6.5 -11t-9.5 -15t-11.5 -10.5t-15.5 -6.5h-4q-22 0 -47 34l-407 495q9 -108 9 -170q0 -49 -6 -130t-6 -141v-28q4 -12 22 -12h10q14 0 19 -8q4 -7 4 -15q0 -7 -5.5 -22t-6.5 -23 q-35 -1 -87 -4.5t-88 -3.5h-30q-1 8 -7 23t-6 22t4 14q11 15 38 15q9 0 26 -2t24 -2q12 0 18 6q-4 105 -4 184q0 38 2 150t2 221q-5 8 -24 8q-7 0 -23.5 -1.5t-24.5 -1.5q-35 0 -42 21q-2 6 -2 9q0 23 42 42q48 12 80 12q37 0 110 -20l98 -116l75 -90l57 -70l68 -88l83 -112 zM843.5 407q-12 -7.5 -19 -27.5q-11.5 -30 -11.5 -52q0 -11 2 -22.5q4.5 -31.5 22.5 -48.5q8.5 -8 31.5 -11.5q1.5 0 7 -0.75t8 -0.75q9 0 16 4.5q5.5 3 9.5 7.75t5.5 8.5t4.5 12.25q9.5 25.5 9.5 47q0 13 -2 25.5q-4.5 28.5 -19.5 48q-12 14.5 -24.5 17q-7 1.5 -13 1.5 q-14 0 -26.5 -8.5zM871 212.5q-6.5 -0.5 -16.5 -0.5t-16 2q-21 5.5 -36.5 19.5q-26 25.5 -32 51.5q-5 19.5 -5 36.5q0 18.5 6.5 40q6.5 24 14.5 38.5t24.5 27q28 22 64.5 22h7q13 -0.5 18.25 -1.25t13.5 -5t16.75 -12.75q19.5 -19.5 26.5 -35q9 -19 10.5 -54 q0.5 -6.5 0.5 -18q0 -20.5 -6 -42q-10 -32 -25.5 -48q-11 -11.5 -31.5 -18.5q-9 -2.5 -18 -2.5q-2.5 0 -7.75 0.25t-8.25 0.25z" />
<glyph unicode="&#x219c;" horiz-adv-x="424" d="M147 477q7 -4 17 -11t17.5 -11t15.5 -4q12 0 27 12t26 13h3q8 0 14.5 -3.5t14.5 -9t14 -8.5q3 -1 14 -7t18 -6h4q10 1 21 15.5t21 14.5q29 0 32 -24q0 -5 -2.5 -8t-9 -6.5t-8.5 -4.5q-6 -4 -14.5 -12t-14 -12.5t-14 -8t-18.5 -4.5h-1q-16 0 -39 19t-39 19h-2 q-10 0 -24.5 -13.5t-25.5 -14.5h-1q-8 0 -16.5 4.5t-16.5 10.5t-9 7q-22 13 -30 13h-3q-19 -2 -20 -13q0 -2 4 -4l12 -4q7 -2 10 -5q2 -3 2 -5.5t-2 -4.5t-4 -1q-49 22 -67.5 36t-34.5 38q20 16 29 22t30 15t47 13h1q8 0 3 -9q-3 -5 -14 -9t-12 -9q4 -7 11 -10t17.5 -5 t16.5 -5z" />
<glyph unicode="&#x21b6;" horiz-adv-x="516" d="M50 477q0 8 9 3q5 -3 9 -14t9 -12q9 5 13.5 23t6.5 22q8 16 32 43q13 15 19.5 21.5t18.5 14.5t26 11q15 3 29 3t39 -4.5t39 -5.5q33 -15 74 -38l64 -39l28 -38q-57 -3 -92 -3q-25 0 -26 2q-6 20 -41 48q-2 2 -8 6q-13 7 -45 11q-34 4 -44 4q-23 0 -39 -11 q-17 -12 -22 -21q-13 -22 -13 -31v-1q1 -1 1 -2q2 -18 12 -19q2 0 3.5 4t4.5 11t6 10q3 2 5.5 2t4.5 -2t1 -4q-22 -49 -36 -67t-38 -34q-50 60 -50 107z" />
<glyph unicode="&#x21b7;" horiz-adv-x="516" d="M466 477q0 -47 -50 -107q-24 16 -38 34t-36 67q-1 2 1 4t4.5 2t5.5 -2q2 -2 3.5 -5t2.5 -5.5t2.5 -5.5t2 -5t1.5 -3t2 -1q10 1 12 19q0 1 1 3q0 9 -13 31q-5 9 -22 21q-16 11 -39 11q-10 0 -44 -4q-32 -4 -45 -11q-6 -4 -8 -6q-35 -28 -41 -48q-1 -2 -26 -2l-92 3l28 38 l64 39q41 23 74 38q14 1 39 5.5t39 4.5t29 -3q14 -3 26 -11t18.5 -14.5t19.5 -21.5q24 -27 32 -43q2 -4 6.5 -22t13.5 -23q5 1 9 12t9 14q9 5 9 -3z" />
<glyph unicode="&#x21dc;" horiz-adv-x="424" d="M301 382q-4 0 -15.5 29.5t-17.5 29.5q-4 0 -5 -4q-30 -64 -41 -64q-8 0 -21.5 38.5t-17.5 38.5t-8.5 -10.5t-10.5 -29t-10 -28.5h-1q-4 0 -8.5 10t-12 24t-16.5 21q-5 4 -11.5 -1.5t-7.5 -11.5q0 -2 5 -4l11 -4q7 -2 10 -5q2 -3 2 -5.5t-2 -4.5t-4 -1q-49 22 -67.5 36 t-34.5 38q20 16 29 22t30 15t47 13h1q8 0 3 -9q-3 -5 -14 -9t-12 -9q4 -7 7 -9.5t6.5 -3t4.5 -0.5q6 -3 18.5 -28t17.5 -25t11 32.5t15 32.5q17 0 21 -37t21 -37q6 0 15 34t26 34h2q14 0 24 -29.5t13 -29.5q5 0 11 32.5t15 32.5q15 0 21 -11.5t10 -32t10 -30.5h1 q9 0 12.5 35t7.5 35q15 0 16 -24q0 -17 -4 -26q-3 -5 -9.5 -24.5t-13 -32t-11.5 -12.5q-8 0 -21.5 38.5t-17.5 38.5q-3 0 -7.5 -34t-21.5 -34z" />
<glyph unicode="&#x21dd;" horiz-adv-x="424" d="M123 515q4 0 15.5 -29.5t17.5 -29.5q4 0 5 4q30 64 41 64q8 0 21.5 -38.5t17.5 -38.5t8.5 10.5t10.5 29t10 28.5h1q4 0 8.5 -10t12 -24t16.5 -21q5 -4 11.5 1.5t7.5 11.5q0 2 -5 4l-11 4q-7 2 -10 5q-2 3 -2 5.5t2 4.5t4 1q49 -22 67.5 -36t34.5 -38q-20 -16 -29 -22 t-30 -15t-47 -13h-1q-8 0 -3 9q3 5 14 9t12 9q-4 7 -7 9.5t-6.5 3t-4.5 0.5q-6 3 -18.5 28t-17.5 25t-11 -32.5t-15 -32.5q-17 0 -21 37t-21 37q-6 0 -15 -34t-26 -34h-2q-14 0 -24 29.5t-13 29.5q-5 0 -11 -32.5t-15 -32.5q-15 0 -21 11.5t-10 32t-10 30.5h-1 q-9 0 -12.5 -35t-7.5 -35q-15 0 -16 24q0 17 4 26q3 5 9.5 24.5t13 32t11.5 12.5q8 0 21.5 -38.5t17.5 -38.5q3 0 7.5 34t21.5 34z" />
</font>
</defs>
</svg>
